<svg width="104" height="103" viewBox="0 0 104 103" fill="none" xmlns="http://www.w3.org/2000/svg">
<path d="M54.2265 22L98 37.5V55L91.5 77L77 92.5L20.5 76L52 54V42L54.2265 22Z" fill="#898989"/>
<path d="M51.5 99.5C78.0097 99.5 99.5 78.0097 99.5 51.5C99.5 24.9903 78.0097 3.5 51.5 3.5C24.9903 3.5 3.5 24.9903 3.5 51.5C3.5 78.0097 24.9903 99.5 51.5 99.5Z" stroke="#2C313D" stroke-width="7"/>
<path d="M51.5 47C58.9558 47 65 40.9558 65 33.5C65 26.0442 58.9558 20 51.5 20C44.0442 20 38 26.0442 38 33.5C38 40.9558 44.0442 47 51.5 47Z" fill="#2C313D"/>
<path d="M82 76C57.7564 76 68.3447 76 51.5 76C34.6553 76 51.5 76 21 76C21 65.5511 34.6553 53 51.5 53C68.3447 53 82 65.5511 82 76Z" fill="#2C313D"/>
</svg>
