<svg width="104" height="103" viewBox="0 0 104 103" fill="none" xmlns="http://www.w3.org/2000/svg">
<g clip-path="url(#clip0_4_24)">
<path d="M52 99C78.5097 99 100 77.5097 100 51C100 24.4903 78.5097 3 52 3C25.4903 3 4 24.4903 4 51C4 77.5097 25.4903 99 52 99Z" stroke="#F0F8FF" stroke-width="7"/>
<path d="M52 46.5C59.4558 46.5 65.5 40.4558 65.5 33C65.5 25.5442 59.4558 19.5 52 19.5C44.5442 19.5 38.5 25.5442 38.5 33C38.5 40.4558 44.5442 46.5 52 46.5Z" fill="#F0F8FF"/>
<path d="M82.5 75.5C58.2564 75.5 68.8447 75.5 52 75.5C35.1553 75.5 52 75.5 21.5 75.5C21.5 65.0511 35.1553 52.5 52 52.5C68.8447 52.5 82.5 65.0511 82.5 75.5Z" fill="#F0F8FF"/>
</g>
<defs>
<clipPath id="clip0_4_24">
<rect width="104" height="103" fill="white"/>
</clipPath>
</defs>
</svg>
