<svg width="104" height="104" viewBox="0 0 104 104" fill="none" xmlns="http://www.w3.org/2000/svg">
<g clip-path="url(#clip0_136_2)">
<path d="M51.5 100C78.0097 100 99.5 78.5097 99.5 52C99.5 25.4903 78.0097 4 51.5 4C24.9903 4 3.5 25.4903 3.5 52C3.5 78.5097 24.9903 100 51.5 100Z" stroke="#2C313D" stroke-width="7"/>
<path d="M51.5 47.5C58.9558 47.5 65 41.4558 65 34C65 26.5442 58.9558 20.5 51.5 20.5C44.0442 20.5 38 26.5442 38 34C38 41.4558 44.0442 47.5 51.5 47.5Z" fill="#2C313D"/>
<path d="M82 76.5C57.7564 76.5 68.3447 76.5 51.5 76.5C34.6553 76.5 51.5 76.5 21 76.5C21 66.0511 34.6553 53.5 51.5 53.5C68.3447 53.5 82 66.0511 82 76.5Z" fill="#2C313D"/>
</g>
<defs>
<clipPath id="clip0_136_2">
<rect width="104" height="103" fill="white" transform="translate(0 0.5)"/>
</clipPath>
</defs>
</svg>
