<svg width="988" height="381" viewBox="0 0 988 381" fill="none" xmlns="http://www.w3.org/2000/svg">
<g filter="url(#filter0_d_24_58)">
<mask id="path-1-outside-1_24_58" maskUnits="userSpaceOnUse" x="766" y="259" width="184" height="55" fill="black">
<rect fill="white" x="766" y="259" width="184" height="55"/>
<path d="M767.018 312V260.2H779.08L807.644 294.684H801.946V260.2H816.302V312H804.24L775.676 277.516H781.374V312H767.018ZM846.099 312.666C841.708 312.666 837.811 311.778 834.407 310.002C831.003 308.226 828.314 305.784 826.341 302.676C824.417 299.519 823.455 295.917 823.455 291.872C823.455 287.827 824.417 284.25 826.341 281.142C828.314 278.034 831.003 275.617 834.407 273.89C837.811 272.114 841.708 271.226 846.099 271.226C850.49 271.226 854.387 272.114 857.791 273.89C861.244 275.617 863.933 278.034 865.857 281.142C867.781 284.25 868.743 287.827 868.743 291.872C868.743 295.917 867.781 299.519 865.857 302.676C863.933 305.784 861.244 308.226 857.791 310.002C854.387 311.778 850.49 312.666 846.099 312.666ZM846.099 301.492C847.727 301.492 849.158 301.122 850.391 300.382C851.674 299.642 852.685 298.557 853.425 297.126C854.165 295.646 854.535 293.895 854.535 291.872C854.535 289.849 854.165 288.147 853.425 286.766C852.685 285.335 851.674 284.25 850.391 283.51C849.158 282.77 847.727 282.4 846.099 282.4C844.52 282.4 843.09 282.77 841.807 283.51C840.574 284.25 839.562 285.335 838.773 286.766C838.033 288.147 837.663 289.849 837.663 291.872C837.663 293.895 838.033 295.646 838.773 297.126C839.562 298.557 840.574 299.642 841.807 300.382C843.09 301.122 844.52 301.492 846.099 301.492ZM893.164 312.666C888.034 312.666 884.038 311.408 881.176 308.892C878.315 306.327 876.884 302.479 876.884 297.348V262.938H890.944V297.2C890.944 298.631 891.339 299.765 892.128 300.604C892.918 301.393 893.929 301.788 895.162 301.788C896.84 301.788 898.27 301.369 899.454 300.53L902.932 310.372C901.748 311.161 900.293 311.729 898.566 312.074C896.84 312.469 895.039 312.666 893.164 312.666ZM871.038 283.88V273.372H900.12V283.88H871.038ZM928.214 312.666C923.478 312.666 919.334 311.778 915.782 310.002C912.279 308.177 909.541 305.71 907.568 302.602C905.644 299.445 904.682 295.868 904.682 291.872C904.682 287.876 905.619 284.324 907.494 281.216C909.418 278.059 912.057 275.617 915.412 273.89C918.766 272.114 922.54 271.226 926.734 271.226C930.68 271.226 934.282 272.04 937.538 273.668C940.794 275.247 943.384 277.59 945.308 280.698C947.232 283.806 948.194 287.58 948.194 292.02C948.194 292.513 948.169 293.081 948.12 293.722C948.07 294.363 948.021 294.955 947.972 295.498H916.226V288.098H940.498L935.17 290.17C935.219 288.345 934.874 286.766 934.134 285.434C933.443 284.102 932.456 283.066 931.174 282.326C929.94 281.586 928.485 281.216 926.808 281.216C925.13 281.216 923.65 281.586 922.368 282.326C921.134 283.066 920.172 284.127 919.482 285.508C918.791 286.84 918.446 288.419 918.446 290.244V292.39C918.446 294.363 918.84 296.065 919.63 297.496C920.468 298.927 921.652 300.037 923.182 300.826C924.711 301.566 926.536 301.936 928.658 301.936C930.631 301.936 932.308 301.665 933.69 301.122C935.12 300.53 936.526 299.642 937.908 298.458L945.308 306.154C943.384 308.275 941.016 309.903 938.204 311.038C935.392 312.123 932.062 312.666 928.214 312.666Z"/>
</mask>
<path d="M767.018 312V260.2H779.08L807.644 294.684H801.946V260.2H816.302V312H804.24L775.676 277.516H781.374V312H767.018ZM846.099 312.666C841.708 312.666 837.811 311.778 834.407 310.002C831.003 308.226 828.314 305.784 826.341 302.676C824.417 299.519 823.455 295.917 823.455 291.872C823.455 287.827 824.417 284.25 826.341 281.142C828.314 278.034 831.003 275.617 834.407 273.89C837.811 272.114 841.708 271.226 846.099 271.226C850.49 271.226 854.387 272.114 857.791 273.89C861.244 275.617 863.933 278.034 865.857 281.142C867.781 284.25 868.743 287.827 868.743 291.872C868.743 295.917 867.781 299.519 865.857 302.676C863.933 305.784 861.244 308.226 857.791 310.002C854.387 311.778 850.49 312.666 846.099 312.666ZM846.099 301.492C847.727 301.492 849.158 301.122 850.391 300.382C851.674 299.642 852.685 298.557 853.425 297.126C854.165 295.646 854.535 293.895 854.535 291.872C854.535 289.849 854.165 288.147 853.425 286.766C852.685 285.335 851.674 284.25 850.391 283.51C849.158 282.77 847.727 282.4 846.099 282.4C844.52 282.4 843.09 282.77 841.807 283.51C840.574 284.25 839.562 285.335 838.773 286.766C838.033 288.147 837.663 289.849 837.663 291.872C837.663 293.895 838.033 295.646 838.773 297.126C839.562 298.557 840.574 299.642 841.807 300.382C843.09 301.122 844.52 301.492 846.099 301.492ZM893.164 312.666C888.034 312.666 884.038 311.408 881.176 308.892C878.315 306.327 876.884 302.479 876.884 297.348V262.938H890.944V297.2C890.944 298.631 891.339 299.765 892.128 300.604C892.918 301.393 893.929 301.788 895.162 301.788C896.84 301.788 898.27 301.369 899.454 300.53L902.932 310.372C901.748 311.161 900.293 311.729 898.566 312.074C896.84 312.469 895.039 312.666 893.164 312.666ZM871.038 283.88V273.372H900.12V283.88H871.038ZM928.214 312.666C923.478 312.666 919.334 311.778 915.782 310.002C912.279 308.177 909.541 305.71 907.568 302.602C905.644 299.445 904.682 295.868 904.682 291.872C904.682 287.876 905.619 284.324 907.494 281.216C909.418 278.059 912.057 275.617 915.412 273.89C918.766 272.114 922.54 271.226 926.734 271.226C930.68 271.226 934.282 272.04 937.538 273.668C940.794 275.247 943.384 277.59 945.308 280.698C947.232 283.806 948.194 287.58 948.194 292.02C948.194 292.513 948.169 293.081 948.12 293.722C948.07 294.363 948.021 294.955 947.972 295.498H916.226V288.098H940.498L935.17 290.17C935.219 288.345 934.874 286.766 934.134 285.434C933.443 284.102 932.456 283.066 931.174 282.326C929.94 281.586 928.485 281.216 926.808 281.216C925.13 281.216 923.65 281.586 922.368 282.326C921.134 283.066 920.172 284.127 919.482 285.508C918.791 286.84 918.446 288.419 918.446 290.244V292.39C918.446 294.363 918.84 296.065 919.63 297.496C920.468 298.927 921.652 300.037 923.182 300.826C924.711 301.566 926.536 301.936 928.658 301.936C930.631 301.936 932.308 301.665 933.69 301.122C935.12 300.53 936.526 299.642 937.908 298.458L945.308 306.154C943.384 308.275 941.016 309.903 938.204 311.038C935.392 312.123 932.062 312.666 928.214 312.666Z" fill="url(#paint0_linear_24_58)"/>
<path d="M767.018 312H766.018V313H767.018V312ZM767.018 260.2V259.2H766.018V260.2H767.018ZM779.08 260.2L779.85 259.562L779.55 259.2H779.08V260.2ZM807.644 294.684V295.684H809.771L808.414 294.046L807.644 294.684ZM801.946 294.684H800.946V295.684H801.946V294.684ZM801.946 260.2V259.2H800.946V260.2H801.946ZM816.302 260.2H817.302V259.2H816.302V260.2ZM816.302 312V313H817.302V312H816.302ZM804.24 312L803.47 312.638L803.77 313H804.24V312ZM775.676 277.516V276.516H773.549L774.906 278.154L775.676 277.516ZM781.374 277.516H782.374V276.516H781.374V277.516ZM781.374 312V313H782.374V312H781.374ZM768.018 312V260.2H766.018V312H768.018ZM767.018 261.2H779.08V259.2H767.018V261.2ZM778.31 260.838L806.874 295.322L808.414 294.046L779.85 259.562L778.31 260.838ZM807.644 293.684H801.946V295.684H807.644V293.684ZM802.946 294.684V260.2H800.946V294.684H802.946ZM801.946 261.2H816.302V259.2H801.946V261.2ZM815.302 260.2V312H817.302V260.2H815.302ZM816.302 311H804.24V313H816.302V311ZM805.01 311.362L776.446 276.878L774.906 278.154L803.47 312.638L805.01 311.362ZM775.676 278.516H781.374V276.516H775.676V278.516ZM780.374 277.516V312H782.374V277.516H780.374ZM781.374 311H767.018V313H781.374V311ZM834.407 310.002L834.87 309.115L834.407 310.002ZM826.341 302.676L825.487 303.196L825.492 303.204L825.497 303.212L826.341 302.676ZM826.341 281.142L825.497 280.606L825.491 280.616L826.341 281.142ZM834.407 273.89L834.859 274.782L834.87 274.777L834.407 273.89ZM857.791 273.89L857.328 274.777L857.336 274.781L857.344 274.784L857.791 273.89ZM865.857 281.142L865.007 281.668L865.007 281.668L865.857 281.142ZM865.857 302.676L866.707 303.202L866.711 303.196L865.857 302.676ZM857.791 310.002L857.334 309.113L857.328 309.115L857.791 310.002ZM850.391 300.382L849.891 299.516L849.884 299.52L849.877 299.525L850.391 300.382ZM853.425 297.126L854.313 297.585L854.319 297.573L853.425 297.126ZM853.425 286.766L852.537 287.225L852.54 287.232L852.544 287.238L853.425 286.766ZM850.391 283.51L849.877 284.367L849.884 284.372L849.891 284.376L850.391 283.51ZM841.807 283.51L841.307 282.644L841.3 282.648L841.293 282.653L841.807 283.51ZM838.773 286.766L837.897 286.283L837.892 286.294L838.773 286.766ZM838.773 297.126L837.879 297.573L837.888 297.591L837.897 297.609L838.773 297.126ZM841.807 300.382L841.293 301.239L841.3 301.244L841.307 301.248L841.807 300.382ZM846.099 311.666C841.846 311.666 838.111 310.807 834.87 309.115L833.944 310.889C837.511 312.749 841.571 313.666 846.099 313.666V311.666ZM834.87 309.115C831.614 307.417 829.06 305.093 827.185 302.14L825.497 303.212C827.568 306.475 830.392 309.035 833.944 310.889L834.87 309.115ZM827.195 302.156C825.375 299.17 824.455 295.752 824.455 291.872H822.455C822.455 296.083 823.459 299.868 825.487 303.196L827.195 302.156ZM824.455 291.872C824.455 287.992 825.375 284.602 827.191 281.668L825.491 280.616C823.459 283.898 822.455 287.661 822.455 291.872H824.455ZM827.185 281.678C829.059 278.727 831.609 276.43 834.859 274.782L833.955 272.998C830.397 274.803 827.57 277.341 825.497 280.606L827.185 281.678ZM834.87 274.777C838.111 273.085 841.846 272.226 846.099 272.226V270.226C841.571 270.226 837.511 271.143 833.944 273.003L834.87 274.777ZM846.099 272.226C850.352 272.226 854.087 273.085 857.328 274.777L858.254 273.003C854.687 271.143 850.627 270.226 846.099 270.226V272.226ZM857.344 274.784C860.641 276.433 863.186 278.727 865.007 281.668L866.707 280.616C864.68 277.341 861.848 274.8 858.238 272.996L857.344 274.784ZM865.007 281.668C866.823 284.602 867.743 287.992 867.743 291.872H869.743C869.743 287.661 868.739 283.898 866.707 280.616L865.007 281.668ZM867.743 291.872C867.743 295.752 866.823 299.17 865.003 302.156L866.711 303.196C868.739 299.868 869.743 296.083 869.743 291.872H867.743ZM865.007 302.15C863.184 305.094 860.636 307.414 857.334 309.113L858.248 310.891C861.853 309.038 864.682 306.474 866.707 303.202L865.007 302.15ZM857.328 309.115C854.087 310.807 850.352 311.666 846.099 311.666V313.666C850.627 313.666 854.687 312.749 858.254 310.889L857.328 309.115ZM846.099 302.492C847.884 302.492 849.497 302.085 850.906 301.239L849.877 299.525C848.818 300.159 847.57 300.492 846.099 300.492V302.492ZM850.891 301.248C852.354 300.404 853.493 299.171 854.313 297.585L852.537 296.667C851.877 297.943 850.994 298.88 849.891 299.516L850.891 301.248ZM854.319 297.573C855.143 295.927 855.535 294.016 855.535 291.872H853.535C853.535 293.773 853.187 295.365 852.531 296.679L854.319 297.573ZM855.535 291.872C855.535 289.731 855.144 287.856 854.307 286.294L852.544 287.238C853.186 288.438 853.535 289.968 853.535 291.872H855.535ZM854.313 286.307C853.493 284.721 852.354 283.488 850.891 282.644L849.891 284.376C850.994 285.012 851.877 285.949 852.537 287.225L854.313 286.307ZM850.906 282.653C849.497 281.807 847.884 281.4 846.099 281.4V283.4C847.57 283.4 848.818 283.733 849.877 284.367L850.906 282.653ZM846.099 281.4C844.357 281.4 842.752 281.81 841.307 282.644L842.307 284.376C843.427 283.73 844.684 283.4 846.099 283.4V281.4ZM841.293 282.653C839.888 283.495 838.76 284.719 837.897 286.283L839.649 287.249C840.365 285.951 841.259 285.005 842.322 284.367L841.293 282.653ZM837.892 286.294C837.054 287.856 836.663 289.731 836.663 291.872H838.663C838.663 289.968 839.012 288.438 839.655 287.238L837.892 286.294ZM836.663 291.872C836.663 294.016 837.055 295.927 837.879 297.573L839.667 296.679C839.011 295.365 838.663 293.773 838.663 291.872H836.663ZM837.897 297.609C838.76 299.173 839.888 300.397 841.293 301.239L842.322 299.525C841.259 298.887 840.365 297.941 839.649 296.643L837.897 297.609ZM841.307 301.248C842.752 302.082 844.357 302.492 846.099 302.492V300.492C844.684 300.492 843.427 300.162 842.307 299.516L841.307 301.248ZM881.176 308.892L880.509 309.637L880.516 309.643L881.176 308.892ZM876.884 262.938V261.938H875.884V262.938H876.884ZM890.944 262.938H891.944V261.938H890.944V262.938ZM892.128 300.604L891.4 301.289L891.41 301.3L891.421 301.311L892.128 300.604ZM899.454 300.53L900.397 300.197L899.956 298.949L898.876 299.714L899.454 300.53ZM902.932 310.372L903.487 311.204L904.134 310.772L903.875 310.039L902.932 310.372ZM898.566 312.074L898.37 311.093L898.357 311.096L898.343 311.099L898.566 312.074ZM871.038 283.88H870.038V284.88H871.038V283.88ZM871.038 273.372V272.372H870.038V273.372H871.038ZM900.12 273.372H901.12V272.372H900.12V273.372ZM900.12 283.88V284.88H901.12V283.88H900.12ZM893.164 311.666C888.191 311.666 884.46 310.448 881.837 308.141L880.516 309.643C883.615 312.368 887.876 313.666 893.164 313.666V311.666ZM881.844 308.147C879.259 305.83 877.884 302.295 877.884 297.348H875.884C875.884 302.663 877.371 306.824 880.509 309.637L881.844 308.147ZM877.884 297.348V262.938H875.884V297.348H877.884ZM876.884 263.938H890.944V261.938H876.884V263.938ZM889.944 262.938V297.2H891.944V262.938H889.944ZM889.944 297.2C889.944 298.821 890.396 300.223 891.4 301.289L892.856 299.919C892.281 299.308 891.944 298.441 891.944 297.2H889.944ZM891.421 301.311C892.418 302.309 893.694 302.788 895.162 302.788V300.788C894.164 300.788 893.417 300.478 892.835 299.897L891.421 301.311ZM895.162 302.788C897.013 302.788 898.654 302.322 900.032 301.346L898.876 299.714C897.886 300.415 896.666 300.788 895.162 300.788V302.788ZM898.511 300.863L901.989 310.705L903.875 310.039L900.397 300.197L898.511 300.863ZM902.377 309.54C901.325 310.242 899.998 310.768 898.37 311.093L898.762 313.055C900.588 312.69 902.172 312.081 903.487 311.204L902.377 309.54ZM898.343 311.099C896.694 311.476 894.968 311.666 893.164 311.666V313.666C895.109 313.666 896.985 313.461 898.789 313.049L898.343 311.099ZM872.038 283.88V273.372H870.038V283.88H872.038ZM871.038 274.372H900.12V272.372H871.038V274.372ZM899.12 273.372V283.88H901.12V273.372H899.12ZM900.12 282.88H871.038V284.88H900.12V282.88ZM915.782 310.002L915.319 310.889L915.327 310.893L915.334 310.896L915.782 310.002ZM907.568 302.602L906.714 303.122L906.718 303.13L906.723 303.138L907.568 302.602ZM907.494 281.216L906.64 280.696L906.637 280.7L907.494 281.216ZM915.412 273.89L915.869 274.779L915.879 274.774L915.412 273.89ZM937.538 273.668L937.09 274.562L937.101 274.568L937.538 273.668ZM945.308 280.698L946.158 280.172L946.158 280.172L945.308 280.698ZM948.12 293.722L949.117 293.799L949.117 293.799L948.12 293.722ZM947.972 295.498V296.498H948.885L948.967 295.589L947.972 295.498ZM916.226 295.498H915.226V296.498H916.226V295.498ZM916.226 288.098V287.098H915.226V288.098H916.226ZM940.498 288.098L940.86 289.03L940.498 287.098V288.098ZM935.17 290.17L934.17 290.143L934.129 291.648L935.532 291.102L935.17 290.17ZM934.134 285.434L933.246 285.894L933.252 285.907L933.259 285.92L934.134 285.434ZM931.174 282.326L930.659 283.183L930.666 283.188L930.674 283.192L931.174 282.326ZM922.368 282.326L921.868 281.46L921.86 281.464L921.853 281.469L922.368 282.326ZM919.482 285.508L920.369 285.968L920.373 285.962L920.376 285.955L919.482 285.508ZM919.63 297.496L918.754 297.979L918.76 297.99L918.767 298.002L919.63 297.496ZM923.182 300.826L922.723 301.715L922.734 301.721L922.746 301.726L923.182 300.826ZM933.69 301.122L934.055 302.053L934.064 302.049L934.072 302.046L933.69 301.122ZM937.908 298.458L938.628 297.765L937.974 297.084L937.257 297.699L937.908 298.458ZM945.308 306.154L946.048 306.826L946.676 306.134L946.028 305.461L945.308 306.154ZM938.204 311.038L938.564 311.971L938.571 311.968L938.578 311.965L938.204 311.038ZM928.214 311.666C923.603 311.666 919.618 310.802 916.229 309.108L915.334 310.896C919.05 312.754 923.352 313.666 928.214 313.666V311.666ZM916.244 309.115C912.885 307.365 910.284 305.015 908.412 302.066L906.723 303.138C908.798 306.405 911.673 308.988 915.319 310.889L916.244 309.115ZM908.422 302.082C906.601 299.094 905.682 295.7 905.682 291.872H903.682C903.682 296.036 904.686 299.796 906.714 303.122L908.422 302.082ZM905.682 291.872C905.682 288.039 906.579 284.669 908.35 281.732L906.637 280.7C904.659 283.979 903.682 287.713 903.682 291.872H905.682ZM908.348 281.736C910.174 278.739 912.675 276.423 915.869 274.779L914.954 273.001C911.439 274.81 908.661 277.378 906.64 280.696L908.348 281.736ZM915.879 274.774C919.075 273.082 922.686 272.226 926.734 272.226V270.226C922.395 270.226 918.457 271.146 914.944 273.006L915.879 274.774ZM926.734 272.226C930.538 272.226 933.985 273.01 937.09 274.562L937.985 272.774C934.579 271.07 930.822 270.226 926.734 270.226V272.226ZM937.101 274.568C940.185 276.063 942.632 278.276 944.457 281.224L946.158 280.172C944.135 276.904 941.402 274.43 937.974 272.768L937.101 274.568ZM944.457 281.224C946.264 284.143 947.194 287.726 947.194 292.02H949.194C949.194 287.434 948.199 283.469 946.158 280.172L944.457 281.224ZM947.194 292.02C947.194 292.481 947.17 293.022 947.123 293.645L949.117 293.799C949.167 293.139 949.194 292.545 949.194 292.02H947.194ZM947.123 293.645C947.074 294.283 947.025 294.87 946.976 295.407L948.967 295.589C949.017 295.041 949.067 294.444 949.117 293.799L947.123 293.645ZM947.972 294.498H916.226V296.498H947.972V294.498ZM917.226 295.498V288.098H915.226V295.498H917.226ZM916.226 289.098H940.498V287.098H916.226V289.098ZM940.135 287.166L934.807 289.238L935.532 291.102L940.86 289.03L940.135 287.166ZM936.169 290.197C936.222 288.228 935.851 286.465 935.008 284.948L933.259 285.92C933.897 287.067 934.215 288.461 934.17 290.143L936.169 290.197ZM935.021 284.974C934.244 283.474 933.124 282.297 931.673 281.46L930.674 283.192C931.789 283.835 932.642 284.73 933.246 285.894L935.021 284.974ZM931.688 281.469C930.275 280.621 928.636 280.216 926.808 280.216V282.216C928.334 282.216 929.605 282.551 930.659 283.183L931.688 281.469ZM926.808 280.216C924.979 280.216 923.322 280.621 921.868 281.46L922.867 283.192C923.979 282.551 925.282 282.216 926.808 282.216V280.216ZM921.853 281.469C920.445 282.314 919.356 283.522 918.587 285.061L920.376 285.955C920.988 284.731 921.824 283.818 922.882 283.183L921.853 281.469ZM918.594 285.048C917.815 286.55 917.446 288.293 917.446 290.244H919.446C919.446 288.545 919.767 287.13 920.369 285.968L918.594 285.048ZM917.446 290.244V292.39H919.446V290.244H917.446ZM917.446 292.39C917.446 294.497 917.868 296.373 918.754 297.979L920.505 297.013C919.813 295.758 919.446 294.229 919.446 292.39H917.446ZM918.767 298.002C919.705 299.602 921.032 300.842 922.723 301.715L923.64 299.937C922.272 299.231 921.231 298.251 920.492 296.99L918.767 298.002ZM922.746 301.726C924.441 302.546 926.422 302.936 928.658 302.936V300.936C926.651 300.936 924.981 300.586 923.617 299.926L922.746 301.726ZM928.658 302.936C930.717 302.936 932.526 302.654 934.055 302.053L933.324 300.191C932.091 300.676 930.545 300.936 928.658 300.936V302.936ZM934.072 302.046C935.616 301.407 937.111 300.458 938.558 299.217L937.257 297.699C935.942 298.826 934.625 299.653 933.307 300.198L934.072 302.046ZM937.187 299.151L944.587 306.847L946.028 305.461L938.628 297.765L937.187 299.151ZM944.567 305.482C942.75 307.485 940.51 309.029 937.829 310.111L938.578 311.965C941.521 310.778 944.017 309.065 946.048 306.826L944.567 305.482ZM937.844 310.105C935.173 311.136 931.971 311.666 928.214 311.666V313.666C932.152 313.666 935.61 313.111 938.564 311.971L937.844 310.105Z" fill="black" mask="url(#path-1-outside-1_24_58)"/>
</g>
<g filter="url(#filter1_d_24_58)">
<mask id="path-3-outside-2_24_58" maskUnits="userSpaceOnUse" x="506" y="129" width="452" height="118" fill="black">
<rect fill="white" x="506" y="129" width="452" height="118"/>
<path d="M508.5 243V138H562.2C576 138 586.3 140.55 593.1 145.65C599.9 150.65 603.3 157.25 603.3 165.45C603.3 170.85 601.85 175.6 598.95 179.7C596.15 183.7 592.15 186.9 586.95 189.3C581.85 191.6 575.75 192.75 568.65 192.75L571.65 185.55C579.05 185.55 585.5 186.7 591 189C596.5 191.2 600.75 194.45 603.75 198.75C606.85 202.95 608.4 208.1 608.4 214.2C608.4 223.3 604.7 230.4 597.3 235.5C590 240.5 579.3 243 565.2 243H508.5ZM537.9 221.55H562.8C567.9 221.55 571.75 220.7 574.35 219C577.05 217.2 578.4 214.5 578.4 210.9C578.4 207.3 577.05 204.65 574.35 202.95C571.75 201.15 567.9 200.25 562.8 200.25H535.8V179.7H558.3C563.3 179.7 567.05 178.85 569.55 177.15C572.05 175.45 573.3 172.9 573.3 169.5C573.3 166.1 572.05 163.6 569.55 162C567.05 160.3 563.3 159.45 558.3 159.45H537.9V221.55ZM622.433 243V131.7H650.933V243H622.433ZM710.255 244.35C701.355 244.35 693.455 242.55 686.555 238.95C679.655 235.35 674.205 230.4 670.205 224.1C666.305 217.7 664.355 210.4 664.355 202.2C664.355 194 666.305 186.75 670.205 180.45C674.205 174.15 679.655 169.25 686.555 165.75C693.455 162.15 701.355 160.35 710.255 160.35C719.155 160.35 727.055 162.15 733.955 165.75C740.955 169.25 746.405 174.15 750.305 180.45C754.205 186.75 756.155 194 756.155 202.2C756.155 210.4 754.205 217.7 750.305 224.1C746.405 230.4 740.955 235.35 733.955 238.95C727.055 242.55 719.155 244.35 710.255 244.35ZM710.255 221.7C713.555 221.7 716.455 220.95 718.955 219.45C721.555 217.95 723.605 215.75 725.105 212.85C726.605 209.85 727.355 206.3 727.355 202.2C727.355 198.1 726.605 194.65 725.105 191.85C723.605 188.95 721.555 186.75 718.955 185.25C716.455 183.75 713.555 183 710.255 183C707.055 183 704.155 183.75 701.555 185.25C699.055 186.75 697.005 188.95 695.405 191.85C693.905 194.65 693.155 198.1 693.155 202.2C693.155 206.3 693.905 209.85 695.405 212.85C697.005 215.75 699.055 217.95 701.555 219.45C704.155 220.95 707.055 221.7 710.255 221.7ZM810.907 244.35C801.907 244.35 793.857 242.55 786.757 238.95C779.757 235.35 774.257 230.4 770.257 224.1C766.257 217.7 764.257 210.4 764.257 202.2C764.257 194 766.257 186.75 770.257 180.45C774.257 174.15 779.757 169.25 786.757 165.75C793.857 162.15 801.907 160.35 810.907 160.35C820.107 160.35 828.057 162.3 834.757 166.2C841.457 170.1 846.207 175.6 849.007 182.7L826.957 193.95C825.057 190.15 822.707 187.4 819.907 185.7C817.107 183.9 814.057 183 810.757 183C807.457 183 804.457 183.75 801.757 185.25C799.057 186.75 796.907 188.95 795.307 191.85C793.807 194.65 793.057 198.1 793.057 202.2C793.057 206.4 793.807 209.95 795.307 212.85C796.907 215.75 799.057 217.95 801.757 219.45C804.457 220.95 807.457 221.7 810.757 221.7C814.057 221.7 817.107 220.85 819.907 219.15C822.707 217.35 825.057 214.55 826.957 210.75L849.007 222C846.207 229.1 841.457 234.6 834.757 238.5C828.057 242.4 820.107 244.35 810.907 244.35ZM883.145 228L883.895 193.95L917.045 161.7H950.795L914.045 199.65L899.495 211.35L883.145 228ZM859.445 243V131.7H887.945V243H859.445ZM919.145 243L894.245 211.8L911.945 189.9L953.645 243H919.145Z"/>
</mask>
<path d="M508.5 243V138H562.2C576 138 586.3 140.55 593.1 145.65C599.9 150.65 603.3 157.25 603.3 165.45C603.3 170.85 601.85 175.6 598.95 179.7C596.15 183.7 592.15 186.9 586.95 189.3C581.85 191.6 575.75 192.75 568.65 192.75L571.65 185.55C579.05 185.55 585.5 186.7 591 189C596.5 191.2 600.75 194.45 603.75 198.75C606.85 202.95 608.4 208.1 608.4 214.2C608.4 223.3 604.7 230.4 597.3 235.5C590 240.5 579.3 243 565.2 243H508.5ZM537.9 221.55H562.8C567.9 221.55 571.75 220.7 574.35 219C577.05 217.2 578.4 214.5 578.4 210.9C578.4 207.3 577.05 204.65 574.35 202.95C571.75 201.15 567.9 200.25 562.8 200.25H535.8V179.7H558.3C563.3 179.7 567.05 178.85 569.55 177.15C572.05 175.45 573.3 172.9 573.3 169.5C573.3 166.1 572.05 163.6 569.55 162C567.05 160.3 563.3 159.45 558.3 159.45H537.9V221.55ZM622.433 243V131.7H650.933V243H622.433ZM710.255 244.35C701.355 244.35 693.455 242.55 686.555 238.95C679.655 235.35 674.205 230.4 670.205 224.1C666.305 217.7 664.355 210.4 664.355 202.2C664.355 194 666.305 186.75 670.205 180.45C674.205 174.15 679.655 169.25 686.555 165.75C693.455 162.15 701.355 160.35 710.255 160.35C719.155 160.35 727.055 162.15 733.955 165.75C740.955 169.25 746.405 174.15 750.305 180.45C754.205 186.75 756.155 194 756.155 202.2C756.155 210.4 754.205 217.7 750.305 224.1C746.405 230.4 740.955 235.35 733.955 238.95C727.055 242.55 719.155 244.35 710.255 244.35ZM710.255 221.7C713.555 221.7 716.455 220.95 718.955 219.45C721.555 217.95 723.605 215.75 725.105 212.85C726.605 209.85 727.355 206.3 727.355 202.2C727.355 198.1 726.605 194.65 725.105 191.85C723.605 188.95 721.555 186.75 718.955 185.25C716.455 183.75 713.555 183 710.255 183C707.055 183 704.155 183.75 701.555 185.25C699.055 186.75 697.005 188.95 695.405 191.85C693.905 194.65 693.155 198.1 693.155 202.2C693.155 206.3 693.905 209.85 695.405 212.85C697.005 215.75 699.055 217.95 701.555 219.45C704.155 220.95 707.055 221.7 710.255 221.7ZM810.907 244.35C801.907 244.35 793.857 242.55 786.757 238.95C779.757 235.35 774.257 230.4 770.257 224.1C766.257 217.7 764.257 210.4 764.257 202.2C764.257 194 766.257 186.75 770.257 180.45C774.257 174.15 779.757 169.25 786.757 165.75C793.857 162.15 801.907 160.35 810.907 160.35C820.107 160.35 828.057 162.3 834.757 166.2C841.457 170.1 846.207 175.6 849.007 182.7L826.957 193.95C825.057 190.15 822.707 187.4 819.907 185.7C817.107 183.9 814.057 183 810.757 183C807.457 183 804.457 183.75 801.757 185.25C799.057 186.75 796.907 188.95 795.307 191.85C793.807 194.65 793.057 198.1 793.057 202.2C793.057 206.4 793.807 209.95 795.307 212.85C796.907 215.75 799.057 217.95 801.757 219.45C804.457 220.95 807.457 221.7 810.757 221.7C814.057 221.7 817.107 220.85 819.907 219.15C822.707 217.35 825.057 214.55 826.957 210.75L849.007 222C846.207 229.1 841.457 234.6 834.757 238.5C828.057 242.4 820.107 244.35 810.907 244.35ZM883.145 228L883.895 193.95L917.045 161.7H950.795L914.045 199.65L899.495 211.35L883.145 228ZM859.445 243V131.7H887.945V243H859.445ZM919.145 243L894.245 211.8L911.945 189.9L953.645 243H919.145Z" fill="url(#paint1_linear_24_58)"/>
<path d="M508.5 243H506.5V245H508.5V243ZM508.5 138V136H506.5V138H508.5ZM593.1 145.65L591.9 147.25L591.907 147.256L591.915 147.261L593.1 145.65ZM598.95 179.7L597.317 178.545L597.311 178.553L598.95 179.7ZM586.95 189.3L587.772 191.123L587.78 191.12L587.788 191.116L586.95 189.3ZM568.65 192.75L566.804 191.981L565.65 194.75H568.65V192.75ZM571.65 185.55V183.55H570.317L569.804 184.781L571.65 185.55ZM591 189L590.228 190.845L590.243 190.851L590.257 190.857L591 189ZM603.75 198.75L602.11 199.894L602.125 199.916L602.141 199.938L603.75 198.75ZM597.3 235.5L598.43 237.15L598.435 237.147L597.3 235.5ZM537.9 221.55H535.9V223.55H537.9V221.55ZM574.35 219L575.444 220.674L575.452 220.669L575.459 220.664L574.35 219ZM574.35 202.95L573.211 204.594L573.247 204.619L573.284 204.642L574.35 202.95ZM535.8 200.25H533.8V202.25H535.8V200.25ZM535.8 179.7V177.7H533.8V179.7H535.8ZM569.55 177.15L570.675 178.804L570.675 178.804L569.55 177.15ZM569.55 162L568.425 163.654L568.448 163.67L568.472 163.685L569.55 162ZM537.9 159.45V157.45H535.9V159.45H537.9ZM510.5 243V138H506.5V243H510.5ZM508.5 140H562.2V136H508.5V140ZM562.2 140C575.815 140 585.603 142.527 591.9 147.25L594.3 144.05C586.997 138.573 576.184 136 562.2 136V140ZM591.915 147.261C598.22 151.897 601.3 157.908 601.3 165.45H605.3C605.3 156.592 601.579 149.403 594.285 144.039L591.915 147.261ZM601.3 165.45C601.3 170.469 599.96 174.809 597.317 178.545L600.583 180.855C603.74 176.391 605.3 171.231 605.3 165.45H601.3ZM597.311 178.553C594.747 182.216 591.047 185.206 586.112 187.484L587.788 191.116C593.253 188.594 597.553 185.183 600.588 180.847L597.311 178.553ZM586.128 187.477C581.346 189.633 575.54 190.75 568.65 190.75V194.75C575.96 194.75 582.354 193.567 587.772 191.123L586.128 187.477ZM570.496 193.519L573.496 186.319L569.804 184.781L566.804 191.981L570.496 193.519ZM571.65 187.55C578.847 187.55 585.024 188.669 590.228 190.845L591.771 187.155C585.976 184.731 579.253 183.55 571.65 183.55V187.55ZM590.257 190.857C595.443 192.931 599.361 195.955 602.11 199.894L605.39 197.606C602.139 192.945 597.556 189.469 591.743 187.143L590.257 190.857ZM602.141 199.938C604.946 203.738 606.4 208.453 606.4 214.2H610.4C610.4 207.747 608.754 202.162 605.359 197.562L602.141 199.938ZM606.4 214.2C606.4 222.652 603.015 229.132 596.165 233.853L598.435 237.147C606.385 231.668 610.4 223.948 610.4 214.2H606.4ZM596.17 233.85C589.347 238.523 579.116 241 565.2 241V245C579.483 245 590.653 242.477 598.43 237.15L596.17 233.85ZM565.2 241H508.5V245H565.2V241ZM537.9 223.55H562.8V219.55H537.9V223.55ZM562.8 223.55C568.063 223.55 572.371 222.683 575.444 220.674L573.255 217.326C571.128 218.717 567.736 219.55 562.8 219.55V223.55ZM575.459 220.664C578.784 218.448 580.4 215.083 580.4 210.9H576.4C576.4 213.917 575.316 215.952 573.24 217.336L575.459 220.664ZM580.4 210.9C580.4 206.717 578.78 203.376 575.416 201.258L573.284 204.642C575.32 205.924 576.4 207.883 576.4 210.9H580.4ZM575.488 201.306C572.406 199.171 568.079 198.25 562.8 198.25V202.25C567.721 202.25 571.094 203.129 573.211 204.594L575.488 201.306ZM562.8 198.25H535.8V202.25H562.8V198.25ZM537.8 200.25V179.7H533.8V200.25H537.8ZM535.8 181.7H558.3V177.7H535.8V181.7ZM558.3 181.7C563.464 181.7 567.69 180.833 570.675 178.804L568.425 175.496C566.41 176.867 563.136 177.7 558.3 177.7V181.7ZM570.675 178.804C573.797 176.68 575.3 173.466 575.3 169.5H571.3C571.3 172.334 570.303 174.22 568.425 175.496L570.675 178.804ZM575.3 169.5C575.3 165.535 573.794 162.342 570.628 160.315L568.472 163.685C570.306 164.858 571.3 166.665 571.3 169.5H575.3ZM570.675 160.346C567.69 158.317 563.464 157.45 558.3 157.45V161.45C563.136 161.45 566.41 162.283 568.425 163.654L570.675 160.346ZM558.3 157.45H537.9V161.45H558.3V157.45ZM535.9 159.45V221.55H539.9V159.45H535.9ZM622.433 243H620.433V245H622.433V243ZM622.433 131.7V129.7H620.433V131.7H622.433ZM650.933 131.7H652.933V129.7H650.933V131.7ZM650.933 243V245H652.933V243H650.933ZM624.433 243V131.7H620.433V243H624.433ZM622.433 133.7H650.933V129.7H622.433V133.7ZM648.933 131.7V243H652.933V131.7H648.933ZM650.933 241H622.433V245H650.933V241ZM686.555 238.95L687.48 237.177L686.555 238.95ZM670.205 224.1L668.497 225.141L668.506 225.156L668.516 225.172L670.205 224.1ZM670.205 180.45L668.516 179.378L668.51 179.388L668.504 179.397L670.205 180.45ZM686.555 165.75L687.459 167.534L687.47 167.528L687.48 167.523L686.555 165.75ZM733.955 165.75L733.029 167.523L733.045 167.531L733.06 167.539L733.955 165.75ZM750.305 180.45L748.604 181.503L748.604 181.503L750.305 180.45ZM750.305 224.1L752.005 225.153L752.012 225.141L750.305 224.1ZM733.955 238.95L733.04 237.171L733.029 237.177L733.955 238.95ZM718.955 219.45L717.955 217.718L717.94 217.726L717.926 217.735L718.955 219.45ZM725.105 212.85L726.881 213.769L726.887 213.757L726.893 213.744L725.105 212.85ZM725.105 191.85L723.328 192.769L723.335 192.782L723.342 192.794L725.105 191.85ZM718.955 185.25L717.926 186.965L717.94 186.974L717.955 186.982L718.955 185.25ZM701.555 185.25L700.555 183.518L700.54 183.526L700.526 183.535L701.555 185.25ZM695.405 191.85L693.653 190.884L693.647 190.895L693.642 190.906L695.405 191.85ZM695.405 212.85L693.616 213.744L693.634 213.781L693.653 213.816L695.405 212.85ZM701.555 219.45L700.526 221.165L700.54 221.174L700.555 221.182L701.555 219.45ZM710.255 242.35C701.63 242.35 694.055 240.608 687.48 237.177L685.629 240.723C692.854 244.492 701.079 246.35 710.255 246.35V242.35ZM687.48 237.177C680.877 233.732 675.696 229.018 671.893 223.028L668.516 225.172C672.713 231.782 678.432 236.968 685.629 240.723L687.48 237.177ZM671.912 223.059C668.221 217.002 666.355 210.069 666.355 202.2H662.355C662.355 210.731 664.388 218.398 668.497 225.141L671.912 223.059ZM666.355 202.2C666.355 194.331 668.221 187.453 671.905 181.503L668.504 179.397C664.388 186.047 662.355 193.669 662.355 202.2H666.355ZM671.893 181.522C675.693 175.537 680.867 170.877 687.459 167.534L685.65 163.966C678.442 167.623 672.716 172.763 668.516 179.378L671.893 181.522ZM687.48 167.523C694.055 164.092 701.63 162.35 710.255 162.35V158.35C701.079 158.35 692.854 160.208 685.629 163.977L687.48 167.523ZM710.255 162.35C718.879 162.35 726.454 164.092 733.029 167.523L734.88 163.977C727.655 160.208 719.43 158.35 710.255 158.35V162.35ZM733.06 167.539C739.748 170.883 744.91 175.536 748.604 181.503L752.005 179.397C747.899 172.764 742.161 167.617 734.849 163.961L733.06 167.539ZM748.604 181.503C752.288 187.453 754.155 194.331 754.155 202.2H758.155C758.155 193.669 756.121 186.047 752.005 179.397L748.604 181.503ZM754.155 202.2C754.155 210.069 752.288 217.002 748.597 223.059L752.012 225.141C756.121 218.398 758.155 210.731 758.155 202.2H754.155ZM748.604 223.047C744.907 229.019 739.738 233.727 733.04 237.171L734.869 240.729C742.171 236.973 747.902 231.781 752.005 225.153L748.604 223.047ZM733.029 237.177C726.454 240.608 718.879 242.35 710.255 242.35V246.35C719.43 246.35 727.655 244.492 734.88 240.723L733.029 237.177ZM710.255 223.7C713.868 223.7 717.133 222.875 719.984 221.165L717.926 217.735C715.776 219.025 713.241 219.7 710.255 219.7V223.7ZM719.954 221.182C722.915 219.474 725.221 216.978 726.881 213.769L723.328 211.931C721.988 214.522 720.195 216.426 717.955 217.718L719.954 221.182ZM726.893 213.744C728.56 210.412 729.355 206.543 729.355 202.2H725.355C725.355 206.057 724.649 209.288 723.316 211.956L726.893 213.744ZM729.355 202.2C729.355 197.864 728.562 194.068 726.868 190.906L723.342 192.794C724.647 195.232 725.355 198.336 725.355 202.2H729.355ZM726.881 190.931C725.221 187.722 722.915 185.226 719.954 183.518L717.955 186.982C720.195 188.274 721.988 190.178 723.328 192.769L726.881 190.931ZM719.984 183.535C717.133 181.825 713.868 181 710.255 181V185C713.241 185 715.776 185.675 717.926 186.965L719.984 183.535ZM710.255 181C706.728 181 703.479 181.831 700.555 183.518L702.554 186.982C704.83 185.669 707.381 185 710.255 185V181ZM700.526 183.535C697.684 185.24 695.4 187.718 693.653 190.884L697.156 192.816C698.609 190.182 700.425 188.26 702.584 186.965L700.526 183.535ZM693.642 190.906C691.947 194.068 691.155 197.864 691.155 202.2H695.155C695.155 198.336 695.862 195.232 697.168 192.794L693.642 190.906ZM691.155 202.2C691.155 206.543 691.949 210.412 693.616 213.744L697.193 211.956C695.86 209.288 695.155 206.057 695.155 202.2H691.155ZM693.653 213.816C695.4 216.982 697.684 219.46 700.526 221.165L702.584 217.735C700.425 216.44 698.609 214.518 697.156 211.884L693.653 213.816ZM700.555 221.182C703.479 222.869 706.728 223.7 710.255 223.7V219.7C707.381 219.7 704.83 219.031 702.554 217.718L700.555 221.182ZM786.757 238.95L785.842 240.729L785.852 240.734L786.757 238.95ZM770.257 224.1L768.561 225.16L768.565 225.166L768.568 225.172L770.257 224.1ZM770.257 180.45L768.568 179.378L768.568 179.378L770.257 180.45ZM786.757 165.75L787.651 167.539L787.661 167.534L786.757 165.75ZM834.757 166.2L835.763 164.472L835.763 164.472L834.757 166.2ZM849.007 182.7L849.916 184.482L851.534 183.656L850.867 181.966L849.007 182.7ZM826.957 193.95L825.168 194.844L826.07 196.648L827.866 195.732L826.957 193.95ZM819.907 185.7L818.825 187.382L818.847 187.396L818.869 187.41L819.907 185.7ZM801.757 185.25L800.786 183.502L800.786 183.502L801.757 185.25ZM795.307 191.85L793.556 190.884L793.55 190.895L793.544 190.906L795.307 191.85ZM795.307 212.85L793.53 213.769L793.543 213.793L793.556 213.816L795.307 212.85ZM819.907 219.15L820.945 220.86L820.967 220.846L820.988 220.832L819.907 219.15ZM826.957 210.75L827.866 208.968L826.07 208.052L825.168 209.856L826.957 210.75ZM849.007 222L850.867 222.734L851.534 221.044L849.916 220.218L849.007 222ZM834.757 238.5L835.763 240.228L835.763 240.228L834.757 238.5ZM810.907 242.35C802.18 242.35 794.446 240.606 787.661 237.166L785.852 240.734C793.267 244.494 801.634 246.35 810.907 246.35V242.35ZM787.672 237.171C780.97 233.725 775.744 229.011 771.945 223.028L768.568 225.172C772.77 231.789 778.544 236.975 785.842 240.729L787.672 237.171ZM771.953 223.04C768.169 216.985 766.257 210.059 766.257 202.2H762.257C762.257 210.741 764.345 218.415 768.561 225.16L771.953 223.04ZM766.257 202.2C766.257 194.341 768.169 187.47 771.945 181.522L768.568 179.378C764.345 186.03 762.257 193.659 762.257 202.2H766.257ZM771.945 181.522C775.741 175.544 780.96 170.885 787.651 167.539L785.862 163.961C778.554 167.615 772.773 172.756 768.568 179.378L771.945 181.522ZM787.661 167.534C794.446 164.094 802.18 162.35 810.907 162.35V158.35C801.634 158.35 793.267 160.206 785.852 163.966L787.661 167.534ZM810.907 162.35C819.82 162.35 827.409 164.237 833.751 167.928L835.763 164.472C828.705 160.363 820.394 158.35 810.907 158.35V162.35ZM833.751 167.928C840.069 171.606 844.514 176.759 847.146 183.434L850.867 181.966C847.9 174.441 842.845 168.594 835.763 164.472L833.751 167.928ZM848.098 180.918L826.048 192.168L827.866 195.732L849.916 184.482L848.098 180.918ZM828.746 193.056C826.726 189.017 824.15 185.936 820.945 183.99L818.869 187.41C821.264 188.864 823.387 191.283 825.168 194.844L828.746 193.056ZM820.988 184.018C817.869 182.012 814.444 181 810.757 181V185C813.67 185 816.345 185.788 818.825 187.382L820.988 184.018ZM810.757 181C807.141 181 803.803 181.825 800.786 183.502L802.728 186.998C805.111 185.675 807.773 185 810.757 185V181ZM800.786 183.502C797.734 185.197 795.323 187.68 793.556 190.884L797.058 192.816C798.49 190.22 800.38 188.303 802.728 186.998L800.786 183.502ZM793.544 190.906C791.85 194.068 791.057 197.864 791.057 202.2H795.057C795.057 198.336 795.764 195.232 797.07 192.794L793.544 190.906ZM791.057 202.2C791.057 206.631 791.848 210.515 793.53 213.769L797.083 211.931C795.766 209.385 795.057 206.169 795.057 202.2H791.057ZM793.556 213.816C795.323 217.02 797.734 219.503 800.786 221.198L802.728 217.702C800.38 216.397 798.49 214.48 797.058 211.884L793.556 213.816ZM800.786 221.198C803.803 222.875 807.141 223.7 810.757 223.7V219.7C807.773 219.7 805.111 219.025 802.728 217.702L800.786 221.198ZM810.757 223.7C814.42 223.7 817.83 222.751 820.945 220.86L818.869 217.44C816.384 218.949 813.694 219.7 810.757 219.7V223.7ZM820.988 220.832C824.163 218.791 826.729 215.678 828.746 211.644L825.168 209.856C823.385 213.422 821.25 215.909 818.825 217.468L820.988 220.832ZM826.048 212.532L848.098 223.782L849.916 220.218L827.866 208.968L826.048 212.532ZM847.146 221.266C844.514 227.941 840.069 233.094 833.751 236.772L835.763 240.228C842.845 236.106 847.9 230.259 850.867 222.734L847.146 221.266ZM833.751 236.772C827.409 240.463 819.82 242.35 810.907 242.35V246.35C820.394 246.35 828.705 244.337 835.763 240.228L833.751 236.772ZM883.145 228L881.145 227.956L881.034 233.004L884.572 229.401L883.145 228ZM883.895 193.95L882.5 192.516L881.913 193.087L881.895 193.906L883.895 193.95ZM917.045 161.7V159.7H916.232L915.65 160.266L917.045 161.7ZM950.795 161.7L952.232 163.091L955.516 159.7H950.795V161.7ZM914.045 199.65L915.298 201.209L915.395 201.131L915.482 201.041L914.045 199.65ZM899.495 211.35L898.241 209.791L898.15 209.865L898.068 209.949L899.495 211.35ZM859.445 243H857.445V245H859.445V243ZM859.445 131.7V129.7H857.445V131.7H859.445ZM887.945 131.7H889.945V129.7H887.945V131.7ZM887.945 243V245H889.945V243H887.945ZM919.145 243L917.582 244.248L918.182 245H919.145V243ZM894.245 211.8L892.689 210.543L891.68 211.792L892.682 213.048L894.245 211.8ZM911.945 189.9L913.518 188.665L911.967 186.69L910.389 188.643L911.945 189.9ZM953.645 243V245H957.758L955.218 241.765L953.645 243ZM885.144 228.044L885.894 193.994L881.895 193.906L881.145 227.956L885.144 228.044ZM885.289 195.384L918.439 163.134L915.65 160.266L882.5 192.516L885.289 195.384ZM917.045 163.7H950.795V159.7H917.045V163.7ZM949.358 160.309L912.608 198.259L915.482 201.041L952.232 163.091L949.358 160.309ZM912.791 198.091L898.241 209.791L900.748 212.909L915.298 201.209L912.791 198.091ZM898.068 209.949L881.718 226.599L884.572 229.401L900.922 212.751L898.068 209.949ZM861.445 243V131.7H857.445V243H861.445ZM859.445 133.7H887.945V129.7H859.445V133.7ZM885.945 131.7V243H889.945V131.7H885.945ZM887.945 241H859.445V245H887.945V241ZM920.708 241.752L895.808 210.552L892.682 213.048L917.582 244.248L920.708 241.752ZM895.8 213.057L913.5 191.157L910.389 188.643L892.689 210.543L895.8 213.057ZM910.372 191.135L952.072 244.235L955.218 241.765L913.518 188.665L910.372 191.135ZM953.645 241H919.145V245H953.645V241Z" fill="white" mask="url(#path-3-outside-2_24_58)"/>
</g>
<g filter="url(#filter2_d_24_58)">
<path d="M26.9999 72C26.9999 51.5655 43.5653 35 63.9999 35H428C448.434 35 465 51.5655 465 72V322C465 342.435 448.434 359 428 359H63.9999C43.5653 359 26.9999 342.435 26.9999 322V72Z" fill="url(#paint2_linear_24_58)"/>
<path d="M63.9999 37.5H428C447.054 37.5 462.5 52.9462 462.5 72V322C462.5 341.054 447.054 356.5 428 356.5H63.9999C44.946 356.5 29.4999 341.054 29.4999 322V72C29.4999 52.9462 44.9461 37.5 63.9999 37.5Z" stroke="black" stroke-width="5"/>
</g>
<g filter="url(#filter3_d_24_58)">
<path d="M113.77 255.581C129.786 255.664 142.678 268.714 142.564 284.73L142.203 335.835C142.089 351.851 129.014 364.768 112.998 364.685L28.9996 364.253C12.9835 364.171 0.0918663 351.121 0.205234 335.105L0.566983 283.999C0.680351 267.983 13.7558 255.067 29.7719 255.149L113.77 255.581Z" fill="#808080"/>
<path d="M140.564 284.719L140.203 335.825C140.097 350.736 127.923 362.762 113.012 362.685L29.0137 362.253C14.1022 362.177 2.09965 350.026 2.2052 335.115L2.56695 284.01C2.6725 269.098 14.8462 257.072 29.7577 257.149L113.756 257.581C128.667 257.658 140.67 269.808 140.564 284.719Z" stroke="#D71DB9" stroke-width="4"/>
</g>
<g filter="url(#filter4_d_24_58)">
<path d="M486.77 263.581C502.786 263.664 515.678 276.714 515.565 292.73L515.203 343.835C515.089 359.851 502.014 372.768 485.998 372.685L402 372.253C385.984 372.171 373.092 359.121 373.205 343.105L373.567 291.999C373.68 275.983 386.756 263.067 402.772 263.149L486.77 263.581Z" fill="#808080"/>
<path d="M513.565 292.719L513.203 343.825C513.097 358.736 500.924 370.762 486.012 370.685L402.014 370.253C387.102 370.177 375.1 358.026 375.205 343.115L375.567 292.01C375.673 277.098 387.846 265.072 402.758 265.149L486.756 265.581C501.668 265.658 513.67 277.808 513.565 292.719Z" stroke="#FFC700" stroke-width="4"/>
</g>
<g filter="url(#filter5_d_24_58)">
<path d="M140.77 66.5811C156.786 66.6635 169.678 79.7137 169.564 95.7296L169.203 146.835C169.089 162.851 156.014 175.768 139.998 175.685L55.9996 175.253C39.9835 175.171 27.0919 162.121 27.2052 146.105L27.567 94.9993C27.6804 78.9834 40.7558 66.0668 56.7719 66.1491L140.77 66.5811Z" fill="#808080"/>
<path d="M167.564 95.7193L167.203 146.825C167.097 161.736 154.923 173.762 140.012 173.685L56.0137 173.253C41.1022 173.177 29.0997 161.026 29.2052 146.115L29.567 95.0096C29.6725 80.0983 41.8462 68.0724 56.7577 68.1491L140.756 68.5811C155.667 68.6578 167.67 80.808 167.564 95.7193Z" stroke="#00E0FF" stroke-width="4"/>
</g>
<g filter="url(#filter6_d_24_58)">
<path d="M444.77 236.581C460.786 236.664 473.678 249.714 473.564 265.73L473.203 316.835C473.089 332.851 460.014 345.768 443.998 345.685L360 345.253C343.984 345.171 331.092 332.121 331.205 316.105L331.567 264.999C331.68 248.983 344.756 236.067 360.772 236.149L444.77 236.581Z" fill="#808080"/>
<path d="M471.564 265.719L471.203 316.825C471.097 331.736 458.923 343.762 444.012 343.685L360.014 343.253C345.102 343.177 333.1 331.026 333.205 316.115L333.567 265.01C333.673 250.098 345.846 238.072 360.758 238.149L444.756 238.581C459.667 238.658 471.67 250.808 471.564 265.719Z" stroke="#FFC700" stroke-width="4"/>
</g>
<g filter="url(#filter7_d_24_58)">
<path d="M294.77 139.581C310.786 139.664 323.678 152.714 323.564 168.73L323.203 219.835C323.089 235.851 310.014 248.768 293.998 248.685L210 248.253C193.984 248.171 181.092 235.121 181.205 219.105L181.567 167.999C181.68 151.983 194.756 139.067 210.772 139.149L294.77 139.581Z" fill="#808080"/>
<path d="M321.564 168.719L321.203 219.825C321.097 234.736 308.923 246.762 294.012 246.685L210.014 246.253C195.102 246.177 183.1 234.026 183.205 219.115L183.567 168.01C183.673 153.098 195.846 141.072 210.758 141.149L294.756 141.581C309.667 141.658 321.67 153.808 321.564 168.719Z" stroke="#FFC700" stroke-width="4"/>
</g>
<g filter="url(#filter8_d_24_58)">
<path d="M385.77 0.58114C401.786 0.663511 414.678 13.7137 414.564 29.7296L414.203 80.835C414.089 96.8509 401.014 109.768 384.998 109.685L301 109.253C284.984 109.171 272.092 96.1206 272.205 80.1048L272.567 28.9993C272.68 12.9834 285.756 0.0667665 301.772 0.149137L385.77 0.58114Z" fill="#808080"/>
<path d="M412.564 29.7193L412.203 80.8247C412.097 95.7361 399.923 107.762 385.012 107.685L301.014 107.253C286.102 107.177 274.1 95.0264 274.205 80.115L274.567 29.0096C274.673 14.0983 286.846 2.0724 301.758 2.14909L385.756 2.58109C400.667 2.65778 412.67 14.808 412.564 29.7193Z" stroke="white" stroke-width="4"/>
</g>
<line x1="297" y1="30" x2="351" y2="30" stroke="#1B1212" stroke-width="10" stroke-linecap="round"/>
<line x1="60.9999" y1="341" x2="115" y2="341" stroke="#3B3B3B" stroke-width="10" stroke-linecap="round"/>
<line x1="20.9999" y1="324" x2="74.9999" y2="324" stroke="#3B3B3B" stroke-width="10" stroke-linecap="round"/>
<line x1="68.9999" y1="302" x2="123" y2="302" stroke="#3B3B3B" stroke-width="10" stroke-linecap="round"/>
<line x1="75.0192" y1="283.392" x2="21.0198" y2="283.649" stroke="#3B3B3B" stroke-width="10" stroke-linecap="round"/>
<line x1="203" y1="192" x2="257" y2="192" stroke="#414141" stroke-width="10" stroke-linecap="round"/>
<line x1="336" y1="76" x2="390" y2="76" stroke="#414141" stroke-width="10" stroke-linecap="round"/>
<line x1="297" y1="50" x2="351" y2="50" stroke="#414141" stroke-width="10" stroke-linecap="round"/>
<line x1="248" y1="219" x2="292" y2="219" stroke="#414141" stroke-width="10" stroke-linecap="round"/>
<line x1="203" y1="219" x2="230" y2="219" stroke="#414141" stroke-width="10" stroke-linecap="round"/>
<line x1="245" y1="169" x2="299" y2="169" stroke="#414141" stroke-width="10" stroke-linecap="round"/>
<line x1="272" y1="192" x2="292" y2="192" stroke="#414141" stroke-width="10" stroke-linecap="round"/>
<line x1="48.9999" y1="114" x2="76.9999" y2="114" stroke="#3B3B3B" stroke-width="10" stroke-linecap="round"/>
<line x1="93.9999" y1="114" x2="148" y2="114" stroke="#3B3B3B" stroke-width="10" stroke-linecap="round"/>
<line x1="47.9999" y1="95" x2="102" y2="95" stroke="#3B3B3B" stroke-width="10" stroke-linecap="round"/>
<line x1="375" y1="270" x2="429" y2="270" stroke="#1B1212" stroke-width="10" stroke-linecap="round"/>
<line x1="352" y1="299" x2="406" y2="299" stroke="#1B1212" stroke-width="10" stroke-linecap="round"/>
<line x1="397" y1="322" x2="451" y2="322" stroke="#1B1212" stroke-width="10" stroke-linecap="round"/>
<line x1="203" y1="169" x2="230" y2="169" stroke="#414141" stroke-width="10" stroke-linecap="round"/>
<line x1="297" y1="76" x2="319" y2="76" stroke="#1B1212" stroke-width="10" stroke-linecap="round"/>
<defs>
<filter id="filter0_d_24_58" x="767.018" y="260.2" width="189.176" height="60.466" filterUnits="userSpaceOnUse" color-interpolation-filters="sRGB">
<feFlood flood-opacity="0" result="BackgroundImageFix"/>
<feColorMatrix in="SourceAlpha" type="matrix" values="0 0 0 0 0 0 0 0 0 0 0 0 0 0 0 0 0 0 127 0" result="hardAlpha"/>
<feOffset dx="4" dy="4"/>
<feGaussianBlur stdDeviation="2"/>
<feComposite in2="hardAlpha" operator="out"/>
<feColorMatrix type="matrix" values="0 0 0 0 0 0 0 0 0 0 0 0 0 0 0 0 0 0 0.25 0"/>
<feBlend mode="normal" in2="BackgroundImageFix" result="effect1_dropShadow_24_58"/>
<feBlend mode="normal" in="SourceGraphic" in2="effect1_dropShadow_24_58" result="shape"/>
</filter>
<filter id="filter1_d_24_58" x="508.5" y="131.7" width="453.145" height="120.65" filterUnits="userSpaceOnUse" color-interpolation-filters="sRGB">
<feFlood flood-opacity="0" result="BackgroundImageFix"/>
<feColorMatrix in="SourceAlpha" type="matrix" values="0 0 0 0 0 0 0 0 0 0 0 0 0 0 0 0 0 0 127 0" result="hardAlpha"/>
<feOffset dx="4" dy="4"/>
<feGaussianBlur stdDeviation="2"/>
<feComposite in2="hardAlpha" operator="out"/>
<feColorMatrix type="matrix" values="0 0 0 0 1 0 0 0 0 1 0 0 0 0 1 0 0 0 0.25 0"/>
<feBlend mode="normal" in2="BackgroundImageFix" result="effect1_dropShadow_24_58"/>
<feBlend mode="normal" in="SourceGraphic" in2="effect1_dropShadow_24_58" result="shape"/>
</filter>
<filter id="filter2_d_24_58" x="16.9999" y="25" width="466" height="352" filterUnits="userSpaceOnUse" color-interpolation-filters="sRGB">
<feFlood flood-opacity="0" result="BackgroundImageFix"/>
<feColorMatrix in="SourceAlpha" type="matrix" values="0 0 0 0 0 0 0 0 0 0 0 0 0 0 0 0 0 0 127 0" result="hardAlpha"/>
<feOffset dx="4" dy="4"/>
<feGaussianBlur stdDeviation="7"/>
<feComposite in2="hardAlpha" operator="out"/>
<feColorMatrix type="matrix" values="0 0 0 0 1 0 0 0 0 1 0 0 0 0 1 0 0 0 0.42 0"/>
<feBlend mode="normal" in2="BackgroundImageFix" result="effect1_dropShadow_24_58"/>
<feBlend mode="normal" in="SourceGraphic" in2="effect1_dropShadow_24_58" result="shape"/>
</filter>
<filter id="filter3_d_24_58" x="0.204468" y="255.149" width="150.361" height="117.537" filterUnits="userSpaceOnUse" color-interpolation-filters="sRGB">
<feFlood flood-opacity="0" result="BackgroundImageFix"/>
<feColorMatrix in="SourceAlpha" type="matrix" values="0 0 0 0 0 0 0 0 0 0 0 0 0 0 0 0 0 0 127 0" result="hardAlpha"/>
<feOffset dx="4" dy="4"/>
<feGaussianBlur stdDeviation="2"/>
<feComposite in2="hardAlpha" operator="out"/>
<feColorMatrix type="matrix" values="0 0 0 0 1 0 0 0 0 1 0 0 0 0 1 0 0 0 0.44 0"/>
<feBlend mode="normal" in2="BackgroundImageFix" result="effect1_dropShadow_24_58"/>
<feBlend mode="normal" in="SourceGraphic" in2="effect1_dropShadow_24_58" result="shape"/>
</filter>
<filter id="filter4_d_24_58" x="373.205" y="263.149" width="150.361" height="117.537" filterUnits="userSpaceOnUse" color-interpolation-filters="sRGB">
<feFlood flood-opacity="0" result="BackgroundImageFix"/>
<feColorMatrix in="SourceAlpha" type="matrix" values="0 0 0 0 0 0 0 0 0 0 0 0 0 0 0 0 0 0 127 0" result="hardAlpha"/>
<feOffset dx="4" dy="4"/>
<feGaussianBlur stdDeviation="2"/>
<feComposite in2="hardAlpha" operator="out"/>
<feColorMatrix type="matrix" values="0 0 0 0 1 0 0 0 0 1 0 0 0 0 1 0 0 0 0.44 0"/>
<feBlend mode="normal" in2="BackgroundImageFix" result="effect1_dropShadow_24_58"/>
<feBlend mode="normal" in="SourceGraphic" in2="effect1_dropShadow_24_58" result="shape"/>
</filter>
<filter id="filter5_d_24_58" x="27.2045" y="66.1487" width="150.361" height="117.537" filterUnits="userSpaceOnUse" color-interpolation-filters="sRGB">
<feFlood flood-opacity="0" result="BackgroundImageFix"/>
<feColorMatrix in="SourceAlpha" type="matrix" values="0 0 0 0 0 0 0 0 0 0 0 0 0 0 0 0 0 0 127 0" result="hardAlpha"/>
<feOffset dx="4" dy="4"/>
<feGaussianBlur stdDeviation="2"/>
<feComposite in2="hardAlpha" operator="out"/>
<feColorMatrix type="matrix" values="0 0 0 0 1 0 0 0 0 1 0 0 0 0 1 0 0 0 0.44 0"/>
<feBlend mode="normal" in2="BackgroundImageFix" result="effect1_dropShadow_24_58"/>
<feBlend mode="normal" in="SourceGraphic" in2="effect1_dropShadow_24_58" result="shape"/>
</filter>
<filter id="filter6_d_24_58" x="331.204" y="236.149" width="150.361" height="117.537" filterUnits="userSpaceOnUse" color-interpolation-filters="sRGB">
<feFlood flood-opacity="0" result="BackgroundImageFix"/>
<feColorMatrix in="SourceAlpha" type="matrix" values="0 0 0 0 0 0 0 0 0 0 0 0 0 0 0 0 0 0 127 0" result="hardAlpha"/>
<feOffset dx="4" dy="4"/>
<feGaussianBlur stdDeviation="2"/>
<feComposite in2="hardAlpha" operator="out"/>
<feColorMatrix type="matrix" values="0 0 0 0 1 0 0 0 0 1 0 0 0 0 1 0 0 0 0.44 0"/>
<feBlend mode="normal" in2="BackgroundImageFix" result="effect1_dropShadow_24_58"/>
<feBlend mode="normal" in="SourceGraphic" in2="effect1_dropShadow_24_58" result="shape"/>
</filter>
<filter id="filter7_d_24_58" x="181.204" y="139.149" width="150.361" height="117.537" filterUnits="userSpaceOnUse" color-interpolation-filters="sRGB">
<feFlood flood-opacity="0" result="BackgroundImageFix"/>
<feColorMatrix in="SourceAlpha" type="matrix" values="0 0 0 0 0 0 0 0 0 0 0 0 0 0 0 0 0 0 127 0" result="hardAlpha"/>
<feOffset dx="4" dy="4"/>
<feGaussianBlur stdDeviation="2"/>
<feComposite in2="hardAlpha" operator="out"/>
<feColorMatrix type="matrix" values="0 0 0 0 1 0 0 0 0 1 0 0 0 0 1 0 0 0 0.44 0"/>
<feBlend mode="normal" in2="BackgroundImageFix" result="effect1_dropShadow_24_58"/>
<feBlend mode="normal" in="SourceGraphic" in2="effect1_dropShadow_24_58" result="shape"/>
</filter>
<filter id="filter8_d_24_58" x="272.204" y="0.148743" width="150.361" height="117.537" filterUnits="userSpaceOnUse" color-interpolation-filters="sRGB">
<feFlood flood-opacity="0" result="BackgroundImageFix"/>
<feColorMatrix in="SourceAlpha" type="matrix" values="0 0 0 0 0 0 0 0 0 0 0 0 0 0 0 0 0 0 127 0" result="hardAlpha"/>
<feOffset dx="4" dy="4"/>
<feGaussianBlur stdDeviation="2"/>
<feComposite in2="hardAlpha" operator="out"/>
<feColorMatrix type="matrix" values="0 0 0 0 1 0 0 0 0 1 0 0 0 0 1 0 0 0 0.44 0"/>
<feBlend mode="normal" in2="BackgroundImageFix" result="effect1_dropShadow_24_58"/>
<feBlend mode="normal" in="SourceGraphic" in2="effect1_dropShadow_24_58" result="shape"/>
</filter>
<linearGradient id="paint0_linear_24_58" x1="875.5" y1="310" x2="876.18" y2="240.007" gradientUnits="userSpaceOnUse">
<stop stop-color="white"/>
<stop offset="1" stop-color="white"/>
</linearGradient>
<linearGradient id="paint1_linear_24_58" x1="741" y1="315.143" x2="741" y2="182.286" gradientUnits="userSpaceOnUse">
<stop stop-color="white"/>
<stop offset="1"/>
</linearGradient>
<linearGradient id="paint2_linear_24_58" x1="291.874" y1="209.991" x2="426.273" y2="316.44" gradientUnits="userSpaceOnUse">
<stop stop-color="#696969"/>
<stop offset="0.935101" stop-color="#242A2A"/>
</linearGradient>
</defs>
</svg>
