<svg width="592" height="169" viewBox="0 0 592 169" fill="none" xmlns="http://www.w3.org/2000/svg">
<g filter="url(#filter0_i_53_2)">
<mask id="path-1-outside-1_53_2" maskUnits="userSpaceOnUse" x="177" y="55" width="378" height="117" fill="black">
<rect fill="white" x="177" y="55" width="378" height="117"/>
<path d="M182.707 165V60H207.157L265.057 129.9H253.507V60H282.607V165H258.157L200.257 95.1H211.807V165H182.707ZM343.007 166.35C334.107 166.35 326.207 164.55 319.307 160.95C312.407 157.35 306.957 152.4 302.957 146.1C299.057 139.7 297.107 132.4 297.107 124.2C297.107 116 299.057 108.75 302.957 102.45C306.957 96.15 312.407 91.25 319.307 87.75C326.207 84.15 334.107 82.35 343.007 82.35C351.907 82.35 359.807 84.15 366.707 87.75C373.707 91.25 379.157 96.15 383.057 102.45C386.957 108.75 388.907 116 388.907 124.2C388.907 132.4 386.957 139.7 383.057 146.1C379.157 152.4 373.707 157.35 366.707 160.95C359.807 164.55 351.907 166.35 343.007 166.35ZM343.007 143.7C346.307 143.7 349.207 142.95 351.707 141.45C354.307 139.95 356.357 137.75 357.857 134.85C359.357 131.85 360.107 128.3 360.107 124.2C360.107 120.1 359.357 116.65 357.857 113.85C356.357 110.95 354.307 108.75 351.707 107.25C349.207 105.75 346.307 105 343.007 105C339.807 105 336.907 105.75 334.307 107.25C331.807 108.75 329.757 110.95 328.157 113.85C326.657 116.65 325.907 120.1 325.907 124.2C325.907 128.3 326.657 131.85 328.157 134.85C329.757 137.75 331.807 139.95 334.307 141.45C336.907 142.95 339.807 143.7 343.007 143.7ZM438.409 166.35C428.009 166.35 419.909 163.8 414.109 158.7C408.309 153.5 405.409 145.7 405.409 135.3V65.55H433.909V135C433.909 137.9 434.709 140.2 436.309 141.9C437.909 143.5 439.959 144.3 442.459 144.3C445.859 144.3 448.759 143.45 451.159 141.75L458.209 161.7C455.809 163.3 452.859 164.45 449.359 165.15C445.859 165.95 442.209 166.35 438.409 166.35ZM393.559 108V86.7H452.509V108H393.559ZM509.455 166.35C499.855 166.35 491.455 164.55 484.255 160.95C477.155 157.25 471.605 152.25 467.605 145.95C463.705 139.55 461.755 132.3 461.755 124.2C461.755 116.1 463.655 108.9 467.455 102.6C471.355 96.2 476.705 91.25 483.505 87.75C490.305 84.15 497.955 82.35 506.455 82.35C514.455 82.35 521.755 84 528.355 87.3C534.955 90.5 540.205 95.25 544.105 101.55C548.005 107.85 549.955 115.5 549.955 124.5C549.955 125.5 549.905 126.65 549.805 127.95C549.705 129.25 549.605 130.45 549.505 131.55H485.155V116.55H534.355L523.555 120.75C523.655 117.05 522.955 113.85 521.455 111.15C520.055 108.45 518.055 106.35 515.455 104.85C512.955 103.35 510.005 102.6 506.605 102.6C503.205 102.6 500.205 103.35 497.605 104.85C495.105 106.35 493.155 108.5 491.755 111.3C490.355 114 489.655 117.2 489.655 120.9V125.25C489.655 129.25 490.455 132.7 492.055 135.6C493.755 138.5 496.155 140.75 499.255 142.35C502.355 143.85 506.055 144.6 510.355 144.6C514.355 144.6 517.755 144.05 520.555 142.95C523.455 141.75 526.305 139.95 529.105 137.55L544.105 153.15C540.205 157.45 535.405 160.75 529.705 163.05C524.005 165.25 517.255 166.35 509.455 166.35Z"/>
</mask>
<path d="M182.707 165V60H207.157L265.057 129.9H253.507V60H282.607V165H258.157L200.257 95.1H211.807V165H182.707ZM343.007 166.35C334.107 166.35 326.207 164.55 319.307 160.95C312.407 157.35 306.957 152.4 302.957 146.1C299.057 139.7 297.107 132.4 297.107 124.2C297.107 116 299.057 108.75 302.957 102.45C306.957 96.15 312.407 91.25 319.307 87.75C326.207 84.15 334.107 82.35 343.007 82.35C351.907 82.35 359.807 84.15 366.707 87.75C373.707 91.25 379.157 96.15 383.057 102.45C386.957 108.75 388.907 116 388.907 124.2C388.907 132.4 386.957 139.7 383.057 146.1C379.157 152.4 373.707 157.35 366.707 160.95C359.807 164.55 351.907 166.35 343.007 166.35ZM343.007 143.7C346.307 143.7 349.207 142.95 351.707 141.45C354.307 139.95 356.357 137.75 357.857 134.85C359.357 131.85 360.107 128.3 360.107 124.2C360.107 120.1 359.357 116.65 357.857 113.85C356.357 110.95 354.307 108.75 351.707 107.25C349.207 105.75 346.307 105 343.007 105C339.807 105 336.907 105.75 334.307 107.25C331.807 108.75 329.757 110.95 328.157 113.85C326.657 116.65 325.907 120.1 325.907 124.2C325.907 128.3 326.657 131.85 328.157 134.85C329.757 137.75 331.807 139.95 334.307 141.45C336.907 142.95 339.807 143.7 343.007 143.7ZM438.409 166.35C428.009 166.35 419.909 163.8 414.109 158.7C408.309 153.5 405.409 145.7 405.409 135.3V65.55H433.909V135C433.909 137.9 434.709 140.2 436.309 141.9C437.909 143.5 439.959 144.3 442.459 144.3C445.859 144.3 448.759 143.45 451.159 141.75L458.209 161.7C455.809 163.3 452.859 164.45 449.359 165.15C445.859 165.95 442.209 166.35 438.409 166.35ZM393.559 108V86.7H452.509V108H393.559ZM509.455 166.35C499.855 166.35 491.455 164.55 484.255 160.95C477.155 157.25 471.605 152.25 467.605 145.95C463.705 139.55 461.755 132.3 461.755 124.2C461.755 116.1 463.655 108.9 467.455 102.6C471.355 96.2 476.705 91.25 483.505 87.75C490.305 84.15 497.955 82.35 506.455 82.35C514.455 82.35 521.755 84 528.355 87.3C534.955 90.5 540.205 95.25 544.105 101.55C548.005 107.85 549.955 115.5 549.955 124.5C549.955 125.5 549.905 126.65 549.805 127.95C549.705 129.25 549.605 130.45 549.505 131.55H485.155V116.55H534.355L523.555 120.75C523.655 117.05 522.955 113.85 521.455 111.15C520.055 108.45 518.055 106.35 515.455 104.85C512.955 103.35 510.005 102.6 506.605 102.6C503.205 102.6 500.205 103.35 497.605 104.85C495.105 106.35 493.155 108.5 491.755 111.3C490.355 114 489.655 117.2 489.655 120.9V125.25C489.655 129.25 490.455 132.7 492.055 135.6C493.755 138.5 496.155 140.75 499.255 142.35C502.355 143.85 506.055 144.6 510.355 144.6C514.355 144.6 517.755 144.05 520.555 142.95C523.455 141.75 526.305 139.95 529.105 137.55L544.105 153.15C540.205 157.45 535.405 160.75 529.705 163.05C524.005 165.25 517.255 166.35 509.455 166.35Z" fill="url(#paint0_linear_53_2)"/>
<path d="M182.707 165H177.707V170H182.707V165ZM182.707 60V55H177.707V60H182.707ZM207.157 60L211.008 56.8105L209.508 55H207.157V60ZM265.057 129.9V134.9H275.691L268.908 126.71L265.057 129.9ZM253.507 129.9H248.507V134.9H253.507V129.9ZM253.507 60V55H248.507V60H253.507ZM282.607 60H287.607V55H282.607V60ZM282.607 165V170H287.607V165H282.607ZM258.157 165L254.306 168.19L255.806 170H258.157V165ZM200.257 95.1V90.1H189.623L196.406 98.2895L200.257 95.1ZM211.807 95.1H216.807V90.1H211.807V95.1ZM211.807 165V170H216.807V165H211.807ZM187.707 165V60H177.707V165H187.707ZM182.707 65H207.157V55H182.707V65ZM203.306 63.1895L261.206 133.09L268.908 126.71L211.008 56.8105L203.306 63.1895ZM265.057 124.9H253.507V134.9H265.057V124.9ZM258.507 129.9V60H248.507V129.9H258.507ZM253.507 65H282.607V55H253.507V65ZM277.607 60V165H287.607V60H277.607ZM282.607 160H258.157V170H282.607V160ZM262.008 161.81L204.108 91.9105L196.406 98.2895L254.306 168.19L262.008 161.81ZM200.257 100.1H211.807V90.1H200.257V100.1ZM206.807 95.1V165H216.807V95.1H206.807ZM211.807 160H182.707V170H211.807V160ZM319.307 160.95L321.619 156.517L319.307 160.95ZM302.957 146.1L298.687 148.702L298.711 148.741L298.736 148.78L302.957 146.1ZM302.957 102.45L298.736 99.77L298.72 99.794L298.705 99.8182L302.957 102.45ZM319.307 87.75L321.568 92.2091L321.594 92.1962L321.619 92.1829L319.307 87.75ZM366.707 87.75L364.394 92.1829L364.432 92.2029L364.471 92.2221L366.707 87.75ZM383.057 102.45L378.805 105.082L383.057 102.45ZM383.057 146.1L387.308 148.732L387.317 148.717L387.326 148.702L383.057 146.1ZM366.707 160.95L364.42 156.504L364.407 156.51L364.394 156.517L366.707 160.95ZM351.707 141.45L349.208 137.119L349.171 137.14L349.134 137.163L351.707 141.45ZM357.857 134.85L362.298 137.147L362.313 137.117L362.329 137.086L357.857 134.85ZM357.857 113.85L353.416 116.147L353.432 116.179L353.449 116.211L357.857 113.85ZM351.707 107.25L349.134 111.537L349.171 111.56L349.208 111.581L351.707 107.25ZM334.307 107.25L331.808 102.919L331.771 102.94L331.734 102.963L334.307 107.25ZM328.157 113.85L323.779 111.435L323.764 111.462L323.749 111.489L328.157 113.85ZM328.157 134.85L323.684 137.086L323.73 137.177L323.779 137.265L328.157 134.85ZM334.307 141.45L331.734 145.737L331.771 145.76L331.808 145.781L334.307 141.45ZM343.007 161.35C334.795 161.35 327.709 159.694 321.619 156.517L316.994 165.383C324.704 169.406 333.418 171.35 343.007 171.35V161.35ZM321.619 156.517C315.464 153.305 310.686 148.946 307.178 143.42L298.736 148.78C303.227 155.854 309.35 161.395 316.994 165.383L321.619 156.517ZM307.226 143.498C303.848 137.955 302.107 131.571 302.107 124.2H292.107C292.107 133.229 294.265 141.445 298.687 148.702L307.226 143.498ZM302.107 124.2C302.107 116.827 303.849 110.508 307.208 105.082L298.705 99.8182C294.265 106.992 292.107 115.173 292.107 124.2H302.107ZM307.178 105.13C310.678 99.6169 315.439 95.3185 321.568 92.2091L317.045 83.2909C309.375 87.1815 303.235 92.6831 298.736 99.77L307.178 105.13ZM321.619 92.1829C327.709 89.0058 334.795 87.35 343.007 87.35V77.35C333.418 77.35 324.704 79.2942 316.994 83.3171L321.619 92.1829ZM343.007 87.35C351.218 87.35 358.304 89.0058 364.394 92.1829L369.019 83.3171C361.309 79.2942 352.595 77.35 343.007 77.35V87.35ZM364.471 92.2221C370.69 95.3318 375.421 99.6153 378.805 105.082L387.308 99.8182C382.892 92.6847 376.723 87.1682 368.943 83.2779L364.471 92.2221ZM378.805 105.082C382.165 110.508 383.907 116.827 383.907 124.2H393.907C393.907 115.173 391.749 106.992 387.308 99.8182L378.805 105.082ZM383.907 124.2C383.907 131.571 382.165 137.955 378.787 143.498L387.326 148.702C391.748 141.445 393.907 133.229 393.907 124.2H383.907ZM378.805 143.468C375.413 148.948 370.665 153.292 364.42 156.504L368.993 165.396C376.748 161.408 382.9 155.852 387.308 148.732L378.805 143.468ZM364.394 156.517C358.304 159.694 351.218 161.35 343.007 161.35V171.35C352.595 171.35 361.309 169.406 369.019 165.383L364.394 156.517ZM343.007 148.7C347.091 148.7 350.904 147.763 354.279 145.737L349.134 137.163C347.51 138.137 345.523 138.7 343.007 138.7V148.7ZM354.205 145.781C357.706 143.761 360.398 140.819 362.298 137.147L353.416 132.553C352.315 134.681 350.907 136.139 349.208 137.119L354.205 145.781ZM362.329 137.086C364.245 133.254 365.107 128.906 365.107 124.2H355.107C355.107 127.694 354.469 130.446 353.384 132.614L362.329 137.086ZM365.107 124.2C365.107 119.509 364.25 115.196 362.264 111.489L353.449 116.211C354.463 118.104 355.107 120.691 355.107 124.2H365.107ZM362.298 111.553C360.398 107.881 357.706 104.939 354.205 102.919L349.208 111.581C350.907 112.561 352.315 114.019 353.416 116.147L362.298 111.553ZM354.279 102.963C350.904 100.937 347.091 100 343.007 100V110C345.523 110 347.51 110.563 349.134 111.537L354.279 102.963ZM343.007 100C338.99 100 335.218 100.952 331.808 102.919L336.805 111.581C338.595 110.548 340.624 110 343.007 110V100ZM331.734 102.963C328.379 104.975 325.746 107.869 323.779 111.435L332.534 116.265C333.767 114.031 335.234 112.525 336.879 111.537L331.734 102.963ZM323.749 111.489C321.763 115.196 320.907 119.509 320.907 124.2H330.907C330.907 120.691 331.55 118.104 332.564 116.211L323.749 111.489ZM320.907 124.2C320.907 128.906 321.769 133.254 323.684 137.086L332.629 132.614C331.545 130.446 330.907 127.694 330.907 124.2H320.907ZM323.779 137.265C325.746 140.831 328.379 143.725 331.734 145.737L336.879 137.163C335.234 136.175 333.767 134.669 332.534 132.435L323.779 137.265ZM331.808 145.781C335.218 147.748 338.99 148.7 343.007 148.7V138.7C340.624 138.7 338.595 138.152 336.805 137.119L331.808 145.781ZM414.109 158.7L410.771 162.423L410.789 162.439L410.807 162.455L414.109 158.7ZM405.409 65.55V60.55H400.409V65.55H405.409ZM433.909 65.55H438.909V60.55H433.909V65.55ZM436.309 141.9L432.668 145.327L432.72 145.382L432.773 145.436L436.309 141.9ZM451.159 141.75L455.873 140.084L453.668 133.845L448.269 137.67L451.159 141.75ZM458.209 161.7L460.982 165.86L464.219 163.702L462.923 160.034L458.209 161.7ZM449.359 165.15L448.378 160.247L448.311 160.26L448.245 160.276L449.359 165.15ZM393.559 108H388.559V113H393.559V108ZM393.559 86.7V81.7H388.559V86.7H393.559ZM452.509 86.7H457.509V81.7H452.509V86.7ZM452.509 108V113H457.509V108H452.509ZM438.409 161.35C428.799 161.35 422.022 159 417.411 154.945L410.807 162.455C417.796 168.6 427.219 171.35 438.409 171.35V161.35ZM417.447 154.977C413.027 151.015 410.409 144.78 410.409 135.3H400.409C400.409 146.62 403.591 155.985 410.771 162.423L417.447 154.977ZM410.409 135.3V65.55H400.409V135.3H410.409ZM405.409 70.55H433.909V60.55H405.409V70.55ZM428.909 65.55V135H438.909V65.55H428.909ZM428.909 135C428.909 138.85 429.996 142.488 432.668 145.327L439.95 138.473C439.422 137.912 438.909 136.95 438.909 135H428.909ZM432.773 145.436C435.414 148.076 438.785 149.3 442.459 149.3V139.3C441.132 139.3 440.404 138.924 439.844 138.364L432.773 145.436ZM442.459 149.3C446.727 149.3 450.677 148.218 454.049 145.83L448.269 137.67C446.84 138.682 444.991 139.3 442.459 139.3V149.3ZM446.445 143.416L453.495 163.366L462.923 160.034L455.873 140.084L446.445 143.416ZM455.435 157.54C453.691 158.703 451.385 159.646 448.378 160.247L450.34 170.053C454.333 169.254 457.927 167.897 460.982 165.86L455.435 157.54ZM448.245 160.276C445.131 160.987 441.856 161.35 438.409 161.35V171.35C442.562 171.35 446.587 170.913 450.473 170.024L448.245 160.276ZM398.559 108V86.7H388.559V108H398.559ZM393.559 91.7H452.509V81.7H393.559V91.7ZM447.509 86.7V108H457.509V86.7H447.509ZM452.509 103H393.559V113H452.509V103ZM484.255 160.95L481.944 165.384L481.981 165.403L482.019 165.422L484.255 160.95ZM467.605 145.95L463.335 148.552L463.359 148.591L463.384 148.63L467.605 145.95ZM467.455 102.6L463.185 99.9981L463.179 100.008L463.174 100.018L467.455 102.6ZM483.505 87.75L485.793 92.1957L485.819 92.1824L485.844 92.1689L483.505 87.75ZM528.355 87.3L526.119 91.7721L526.146 91.7858L526.174 91.7991L528.355 87.3ZM544.105 101.55L548.356 98.9182L544.105 101.55ZM549.805 127.95L554.79 128.333L549.805 127.95ZM549.505 131.55V136.55H554.071L554.484 132.003L549.505 131.55ZM485.155 131.55H480.155V136.55H485.155V131.55ZM485.155 116.55V111.55H480.155V116.55H485.155ZM534.355 116.55L536.167 121.21L534.355 111.55V116.55ZM523.555 120.75L518.557 120.615L518.354 128.138L525.367 125.41L523.555 120.75ZM521.455 111.15L517.016 113.452L517.049 113.515L517.084 113.578L521.455 111.15ZM515.455 104.85L512.883 109.137L512.919 109.16L512.956 109.181L515.455 104.85ZM497.605 104.85L495.106 100.519L495.069 100.54L495.033 100.563L497.605 104.85ZM491.755 111.3L496.194 113.602L496.211 113.569L496.227 113.536L491.755 111.3ZM492.055 135.6L487.677 138.015L487.709 138.072L487.742 138.129L492.055 135.6ZM499.255 142.35L496.962 146.793L497.019 146.823L497.077 146.851L499.255 142.35ZM520.555 142.95L522.383 147.604L522.425 147.587L522.467 147.57L520.555 142.95ZM529.105 137.55L532.709 134.084L529.436 130.681L525.851 133.754L529.105 137.55ZM544.105 153.15L547.809 156.509L550.946 153.05L547.709 149.684L544.105 153.15ZM529.705 163.05L531.505 167.715L531.541 167.701L531.576 167.687L529.705 163.05ZM509.455 161.35C500.483 161.35 492.875 159.67 486.491 156.478L482.019 165.422C490.035 169.43 499.227 171.35 509.455 171.35V161.35ZM486.566 156.516C480.187 153.192 475.32 148.773 471.826 143.27L463.384 148.63C467.89 155.727 474.123 161.308 481.944 165.384L486.566 156.516ZM471.875 143.348C468.491 137.795 466.755 131.459 466.755 124.2H456.755C456.755 133.141 458.919 141.305 463.335 148.552L471.875 143.348ZM466.755 124.2C466.755 116.915 468.453 110.626 471.736 105.182L463.174 100.018C458.857 107.174 456.755 115.285 456.755 124.2H466.755ZM471.725 105.202C475.136 99.6037 479.793 95.284 485.793 92.1957L481.217 83.3043C473.617 87.216 467.574 92.7963 463.185 99.9981L471.725 105.202ZM485.844 92.1689C491.851 88.9893 498.684 87.35 506.455 87.35V77.35C497.227 77.35 488.759 79.3107 481.166 83.3311L485.844 92.1689ZM506.455 87.35C513.745 87.35 520.27 88.8479 526.119 91.7721L530.591 82.8279C523.24 79.1521 515.165 77.35 506.455 77.35V87.35ZM526.174 91.7991C531.911 94.581 536.447 98.6792 539.854 104.182L548.356 98.9182C543.963 91.8208 537.999 86.419 530.536 82.8009L526.174 91.7991ZM539.854 104.182C543.169 109.537 544.955 116.229 544.955 124.5H554.955C554.955 114.771 552.841 106.163 548.356 98.9182L539.854 104.182ZM544.955 124.5C544.955 125.34 544.913 126.358 544.82 127.567L554.79 128.333C554.897 126.942 554.955 125.66 554.955 124.5H544.955ZM544.82 127.567C544.721 128.847 544.623 130.024 544.526 131.097L554.484 132.003C554.587 130.876 554.689 129.653 554.79 128.333L544.82 127.567ZM549.505 126.55H485.155V136.55H549.505V126.55ZM490.155 131.55V116.55H480.155V131.55H490.155ZM485.155 121.55H534.355V111.55H485.155V121.55ZM532.543 111.89L521.743 116.09L525.367 125.41L536.167 121.21L532.543 111.89ZM528.553 120.885C528.673 116.468 527.84 112.347 525.826 108.722L517.084 113.578C518.07 115.353 518.637 117.632 518.557 120.615L528.553 120.885ZM525.894 108.848C524.06 105.312 521.392 102.503 517.954 100.519L512.956 109.181C514.718 110.197 516.05 111.588 517.016 113.452L525.894 108.848ZM518.027 100.563C514.629 98.5236 510.759 97.6 506.605 97.6V107.6C509.251 107.6 511.281 108.176 512.883 109.137L518.027 100.563ZM506.605 97.6C502.446 97.6 498.563 98.5251 495.106 100.519L500.104 109.181C501.847 108.175 503.964 107.6 506.605 107.6V97.6ZM495.033 100.563C491.657 102.588 489.075 105.479 487.283 109.064L496.227 113.536C497.235 111.521 498.553 110.112 500.177 109.137L495.033 100.563ZM487.316 108.998C485.476 112.548 484.655 116.57 484.655 120.9H494.655C494.655 117.83 495.234 115.452 496.194 113.602L487.316 108.998ZM484.655 120.9V125.25H494.655V120.9H484.655ZM484.655 125.25C484.655 129.92 485.592 134.237 487.677 138.015L496.433 133.185C495.318 131.163 494.655 128.58 494.655 125.25H484.655ZM487.742 138.129C489.939 141.877 493.054 144.776 496.962 146.793L501.548 137.907C499.256 136.724 497.571 135.123 496.368 133.071L487.742 138.129ZM497.077 146.851C501.004 148.751 505.484 149.6 510.355 149.6V139.6C506.626 139.6 503.706 138.949 501.433 137.849L497.077 146.851ZM510.355 149.6C514.786 149.6 518.844 148.994 522.383 147.604L518.727 138.296C516.666 139.106 513.924 139.6 510.355 139.6V149.6ZM522.467 147.57C525.932 146.136 529.226 144.031 532.359 141.346L525.851 133.754C523.384 135.869 520.978 137.364 518.643 138.33L522.467 147.57ZM525.501 141.016L540.501 156.616L547.709 149.684L532.709 134.084L525.501 141.016ZM540.401 149.791C537.038 153.5 532.877 156.378 527.834 158.413L531.576 167.687C537.933 165.122 543.372 161.4 547.809 156.509L540.401 149.791ZM527.905 158.385C522.913 160.312 516.802 161.35 509.455 161.35V171.35C517.708 171.35 525.097 170.188 531.505 167.715L527.905 158.385Z" fill="url(#paint1_linear_53_2)" mask="url(#path-1-outside-1_53_2)"/>
<mask id="path-3-outside-2_53_2" maskUnits="userSpaceOnUse" x="19" y="18" width="132" height="154" fill="black">
<rect fill="white" x="19" y="18" width="132" height="154"/>
<path d="M63.6307 137.12C63.6307 141.653 63.8007 145.28 64.1407 148C64.4807 150.72 65.1607 152.817 66.1807 154.29C67.2007 155.763 68.674 156.783 70.6007 157.35C72.5274 157.803 75.134 158.087 78.4207 158.2V165H24.8707V158.2C28.044 158.087 30.594 157.747 32.5207 157.18C34.5607 156.5 36.0907 155.48 37.1107 154.12C38.244 152.647 38.9807 150.663 39.3207 148.17C39.774 145.563 40.0007 142.277 40.0007 138.31V117.4C40.0007 110.827 39.8873 105.443 39.6607 101.25C39.434 96.9433 39.1507 93.9967 38.8107 92.41C38.244 89.5767 36.9407 87.7067 34.9007 86.8C32.974 85.8933 29.404 85.44 24.1907 85.44V79.66L63.6307 73.2V137.12ZM38.6407 37.16C38.6407 33.42 39.8873 30.3033 42.3807 27.81C44.9873 25.2033 48.104 23.9 51.7307 23.9C55.4707 23.9 58.5874 25.2033 61.0807 27.81C63.6874 30.3033 64.9907 33.42 64.9907 37.16C64.9907 40.7867 63.6874 43.9033 61.0807 46.51C58.5874 49.0033 55.4707 50.25 51.7307 50.25C48.104 50.25 44.9873 49.0033 42.3807 46.51C39.8873 43.9033 38.6407 40.7867 38.6407 37.16ZM85.6165 84.25V76.6C92.4165 74.6733 98.0831 71.7833 102.616 67.93C107.263 63.9633 110.72 59.43 112.986 54.33H121.656V74.9H141.206V84.25H121.656V136.44C121.656 143.467 122.393 148.453 123.866 151.4C125.453 154.347 128.06 155.82 131.686 155.82C136.106 155.82 139.45 153.78 141.716 149.7L145.286 154.63C142.113 162.677 134.633 166.7 122.846 166.7C115.026 166.7 108.906 164.887 104.486 161.26C100.18 157.633 98.0265 152.533 98.0265 145.96V84.25H85.6165Z"/>
</mask>
<path d="M63.6307 137.12C63.6307 141.653 63.8007 145.28 64.1407 148C64.4807 150.72 65.1607 152.817 66.1807 154.29C67.2007 155.763 68.674 156.783 70.6007 157.35C72.5274 157.803 75.134 158.087 78.4207 158.2V165H24.8707V158.2C28.044 158.087 30.594 157.747 32.5207 157.18C34.5607 156.5 36.0907 155.48 37.1107 154.12C38.244 152.647 38.9807 150.663 39.3207 148.17C39.774 145.563 40.0007 142.277 40.0007 138.31V117.4C40.0007 110.827 39.8873 105.443 39.6607 101.25C39.434 96.9433 39.1507 93.9967 38.8107 92.41C38.244 89.5767 36.9407 87.7067 34.9007 86.8C32.974 85.8933 29.404 85.44 24.1907 85.44V79.66L63.6307 73.2V137.12ZM38.6407 37.16C38.6407 33.42 39.8873 30.3033 42.3807 27.81C44.9873 25.2033 48.104 23.9 51.7307 23.9C55.4707 23.9 58.5874 25.2033 61.0807 27.81C63.6874 30.3033 64.9907 33.42 64.9907 37.16C64.9907 40.7867 63.6874 43.9033 61.0807 46.51C58.5874 49.0033 55.4707 50.25 51.7307 50.25C48.104 50.25 44.9873 49.0033 42.3807 46.51C39.8873 43.9033 38.6407 40.7867 38.6407 37.16ZM85.6165 84.25V76.6C92.4165 74.6733 98.0831 71.7833 102.616 67.93C107.263 63.9633 110.72 59.43 112.986 54.33H121.656V74.9H141.206V84.25H121.656V136.44C121.656 143.467 122.393 148.453 123.866 151.4C125.453 154.347 128.06 155.82 131.686 155.82C136.106 155.82 139.45 153.78 141.716 149.7L145.286 154.63C142.113 162.677 134.633 166.7 122.846 166.7C115.026 166.7 108.906 164.887 104.486 161.26C100.18 157.633 98.0265 152.533 98.0265 145.96V84.25H85.6165Z" fill="white"/>
<path d="M64.1407 148L69.1021 147.38L69.1021 147.38L64.1407 148ZM66.1807 154.29L62.0697 157.136L62.0697 157.136L66.1807 154.29ZM70.6007 157.35L69.1899 162.147L69.3217 162.186L69.4555 162.217L70.6007 157.35ZM78.4207 158.2H83.4207V153.369L78.593 153.203L78.4207 158.2ZM78.4207 165V170H83.4207V165H78.4207ZM24.8707 165H19.8707V170H24.8707V165ZM24.8707 158.2L24.6922 153.203L19.8707 153.375V158.2H24.8707ZM32.5207 157.18L33.9315 161.977L34.0171 161.952L34.1018 161.923L32.5207 157.18ZM37.1107 154.12L33.1476 151.071L33.129 151.096L33.1107 151.12L37.1107 154.12ZM39.3207 148.17L34.3946 147.313L34.3789 147.404L34.3665 147.494L39.3207 148.17ZM39.6607 101.25L34.6676 101.513L34.668 101.52L39.6607 101.25ZM38.8107 92.41L33.9078 93.3906L33.9145 93.4242L33.9217 93.4576L38.8107 92.41ZM34.9007 86.8L32.7717 91.3241L32.8206 91.3471L32.87 91.3691L34.9007 86.8ZM24.1907 85.44H19.1907V90.44H24.1907V85.44ZM24.1907 79.66L23.3825 74.7257L19.1907 75.4123V79.66H24.1907ZM63.6307 73.2H68.6307V67.3144L62.8225 68.2657L63.6307 73.2ZM42.3807 27.81L38.8451 24.2745L38.8451 24.2745L42.3807 27.81ZM61.0807 27.81L57.4675 31.2661L57.5443 31.3464L57.6246 31.4232L61.0807 27.81ZM61.0807 46.51L57.5451 42.9745L57.5451 42.9745L61.0807 46.51ZM42.3807 46.51L38.7675 49.9661L38.8443 50.0464L38.9246 50.1232L42.3807 46.51ZM58.6307 137.12C58.6307 141.746 58.8024 145.605 59.1793 148.62L69.1021 147.38C68.7989 144.955 68.6307 141.561 68.6307 137.12H58.6307ZM59.1793 148.62C59.571 151.754 60.4115 154.741 62.0697 157.136L70.2916 151.444C69.9099 150.892 69.3904 149.686 69.1021 147.38L59.1793 148.62ZM62.0697 157.136C63.8189 159.663 66.3069 161.299 69.1899 162.147L72.0115 152.553C71.0412 152.268 70.5824 151.864 70.2916 151.444L62.0697 157.136ZM69.4555 162.217C71.8414 162.778 74.8184 163.079 78.2484 163.197L78.593 153.203C75.4496 153.095 73.2133 152.828 71.7459 152.483L69.4555 162.217ZM73.4207 158.2V165H83.4207V158.2H73.4207ZM78.4207 160H24.8707V170H78.4207V160ZM29.8707 165V158.2H19.8707V165H29.8707ZM25.0491 163.197C28.4284 163.076 31.442 162.709 33.9315 161.977L31.1098 152.383C29.746 152.784 27.6596 153.097 24.6922 153.203L25.0491 163.197ZM34.1018 161.923C36.8506 161.007 39.3364 159.486 41.1107 157.12L33.1107 151.12C32.845 151.474 32.2708 151.993 30.9395 152.437L34.1018 161.923ZM41.0738 157.169C42.8942 154.802 43.8571 151.909 44.2748 148.846L34.3665 147.494C34.1043 149.418 33.5938 150.491 33.1476 151.071L41.0738 157.169ZM44.2467 149.027C44.7671 146.035 45.0007 142.437 45.0007 138.31H35.0007C35.0007 142.116 34.781 145.092 34.3946 147.313L44.2467 149.027ZM45.0007 138.31V117.4H35.0007V138.31H45.0007ZM45.0007 117.4C45.0007 110.781 44.8868 105.299 44.6534 100.98L34.668 101.52C34.8879 105.588 35.0007 110.873 35.0007 117.4H45.0007ZM44.6538 100.987C44.4287 96.7112 44.1341 93.3894 43.6997 91.3624L33.9217 93.4576C34.1673 94.6039 34.4393 97.1754 34.6676 101.513L44.6538 100.987ZM43.7136 91.4294C42.9324 87.5235 40.8797 83.9858 36.9314 82.2309L32.87 91.3691C33.0016 91.4276 33.5556 91.6298 33.9078 93.3906L43.7136 91.4294ZM37.0297 82.2759C33.9803 80.8409 29.3677 80.44 24.1907 80.44V90.44C29.4403 90.44 31.9677 90.9457 32.7717 91.3241L37.0297 82.2759ZM29.1907 85.44V79.66H19.1907V85.44H29.1907ZM24.9989 84.5942L64.4389 78.1342L62.8225 68.2657L23.3825 74.7257L24.9989 84.5942ZM58.6307 73.2V137.12H68.6307V73.2H58.6307ZM43.6407 37.16C43.6407 34.6568 44.4219 32.8399 45.9162 31.3455L38.8451 24.2745C35.3528 27.7668 33.6407 32.1832 33.6407 37.16H43.6407ZM45.9162 31.3455C47.6025 29.6592 49.4544 28.9 51.7307 28.9V18.9C46.7536 18.9 42.3722 20.7474 38.8451 24.2745L45.9162 31.3455ZM51.7307 28.9C54.1626 28.9 55.9558 29.6857 57.4675 31.2661L64.6939 24.3539C61.2189 20.721 56.7788 18.9 51.7307 18.9V28.9ZM57.6246 31.4232C59.205 32.9349 59.9907 34.7281 59.9907 37.16H69.9907C69.9907 32.1119 68.1697 27.6717 64.5368 24.1968L57.6246 31.4232ZM59.9907 37.16C59.9907 39.4363 59.2315 41.2881 57.5451 42.9745L64.6162 50.0455C68.1432 46.5185 69.9907 42.1371 69.9907 37.16H59.9907ZM57.5451 42.9745C56.0508 44.4688 54.2339 45.25 51.7307 45.25V55.25C56.7075 55.25 61.1239 53.5378 64.6162 50.0455L57.5451 42.9745ZM51.7307 45.25C49.3839 45.25 47.5074 44.4947 45.8368 42.8968L38.9246 50.1232C42.4673 53.5119 46.8242 55.25 51.7307 55.25V45.25ZM45.9939 43.0539C44.396 41.3833 43.6407 39.5068 43.6407 37.16H33.6407C33.6407 42.0665 35.3787 46.4233 38.7675 49.9661L45.9939 43.0539ZM85.6165 84.25H80.6165V89.25H85.6165V84.25ZM85.6165 76.6L84.2535 71.7894L80.6165 72.8198V76.6H85.6165ZM102.616 67.93L105.855 71.7397L105.863 71.7328L102.616 67.93ZM112.986 54.33V49.33H109.737L108.417 52.2993L112.986 54.33ZM121.656 54.33H126.656V49.33H121.656V54.33ZM121.656 74.9H116.656V79.9H121.656V74.9ZM141.206 74.9H146.206V69.9H141.206V74.9ZM141.206 84.25V89.25H146.206V84.25H141.206ZM121.656 84.25V79.25H116.656V84.25H121.656ZM123.866 151.4L119.394 153.636L119.428 153.704L119.464 153.77L123.866 151.4ZM141.716 149.7L145.766 146.767L141.16 140.406L137.346 147.272L141.716 149.7ZM145.286 154.63L149.938 156.464L150.943 153.916L149.336 151.697L145.286 154.63ZM104.486 161.26L101.266 165.085L101.29 165.105L101.315 165.125L104.486 161.26ZM98.0265 84.25H103.026V79.25H98.0265V84.25ZM90.6165 84.25V76.6H80.6165V84.25H90.6165ZM86.9795 81.4106C94.3412 79.3248 100.682 76.1362 105.855 71.7397L99.3782 64.1203C95.4839 67.4304 90.4917 70.0218 84.2535 71.7894L86.9795 81.4106ZM105.863 71.7328C111.023 67.3281 114.958 62.2053 117.556 56.3607L108.417 52.2993C106.482 56.6547 103.504 60.5986 99.3702 64.1272L105.863 71.7328ZM112.986 59.33H121.656V49.33H112.986V59.33ZM116.656 54.33V74.9H126.656V54.33H116.656ZM121.656 79.9H141.206V69.9H121.656V79.9ZM136.206 74.9V84.25H146.206V74.9H136.206ZM141.206 79.25H121.656V89.25H141.206V79.25ZM116.656 84.25V136.44H126.656V84.25H116.656ZM116.656 136.44C116.656 143.555 117.36 149.568 119.394 153.636L128.339 149.164C127.426 147.339 126.656 143.378 126.656 136.44H116.656ZM119.464 153.77C120.651 155.974 122.332 157.814 124.551 159.068C126.749 160.31 129.192 160.82 131.686 160.82V150.82C130.554 150.82 129.881 150.593 129.472 150.362C129.084 150.143 128.669 149.773 128.269 149.03L119.464 153.77ZM131.686 160.82C134.694 160.82 137.56 160.116 140.113 158.558C142.653 157.009 144.615 154.779 146.087 152.128L137.346 147.272C136.552 148.701 135.708 149.531 134.905 150.022C134.115 150.504 133.099 150.82 131.686 150.82V160.82ZM137.667 152.633L141.237 157.563L149.336 151.697L145.766 146.767L137.667 152.633ZM140.635 152.796C139.473 155.742 137.607 157.838 134.928 159.279C132.143 160.777 128.217 161.7 122.846 161.7V171.7C129.263 171.7 134.97 170.611 139.665 168.086C144.466 165.503 147.926 161.565 149.938 156.464L140.635 152.796ZM122.846 161.7C115.76 161.7 110.904 160.058 107.658 157.395L101.315 165.125C106.909 169.716 114.293 171.7 122.846 171.7V161.7ZM107.707 157.435C104.723 154.922 103.026 151.333 103.026 145.96H93.0265C93.0265 153.734 95.6367 160.344 101.266 165.085L107.707 157.435ZM103.026 145.96V84.25H93.0265V145.96H103.026ZM98.0265 79.25H85.6165V89.25H98.0265V79.25Z" fill="#0C0C0C" mask="url(#path-3-outside-2_53_2)"/>
</g>
<defs>
<filter id="filter0_i_53_2" x="24.1904" y="23.9" width="528.765" height="145.8" filterUnits="userSpaceOnUse" color-interpolation-filters="sRGB">
<feFlood flood-opacity="0" result="BackgroundImageFix"/>
<feBlend mode="normal" in="SourceGraphic" in2="BackgroundImageFix" result="shape"/>
<feColorMatrix in="SourceAlpha" type="matrix" values="0 0 0 0 0 0 0 0 0 0 0 0 0 0 0 0 0 0 127 0" result="hardAlpha"/>
<feOffset dx="3" dy="3"/>
<feGaussianBlur stdDeviation="5"/>
<feComposite in2="hardAlpha" operator="arithmetic" k2="-1" k3="1"/>
<feColorMatrix type="matrix" values="0 0 0 0 1 0 0 0 0 1 0 0 0 0 1 0 0 0 1 0"/>
<feBlend mode="normal" in2="shape" result="effect1_innerShadow_53_2"/>
</filter>
<linearGradient id="paint0_linear_53_2" x1="404.23" y1="243.183" x2="402.237" y2="19.9903" gradientUnits="userSpaceOnUse">
<stop stop-color="#3DDCF2"/>
<stop offset="0.996666"/>
</linearGradient>
<linearGradient id="paint1_linear_53_2" x1="367" y1="173.5" x2="363" y2="50.5" gradientUnits="userSpaceOnUse">
<stop stop-color="white"/>
<stop offset="1" stop-color="white"/>
</linearGradient>
</defs>
</svg>
