<svg width="586" height="217" viewBox="0 0 586 217" fill="none" xmlns="http://www.w3.org/2000/svg">
<mask id="path-1-outside-1_136_34" maskUnits="userSpaceOnUse" x="42" y="88" width="378" height="117" fill="black">
<rect fill="white" x="42" y="88" width="378" height="117"/>
<path d="M47.707 198V93H72.157L130.057 162.9H118.507V93H147.607V198H123.157L65.257 128.1H76.807V198H47.707ZM208.007 199.35C199.107 199.35 191.207 197.55 184.307 193.95C177.407 190.35 171.957 185.4 167.957 179.1C164.057 172.7 162.107 165.4 162.107 157.2C162.107 149 164.057 141.75 167.957 135.45C171.957 129.15 177.407 124.25 184.307 120.75C191.207 117.15 199.107 115.35 208.007 115.35C216.907 115.35 224.807 117.15 231.707 120.75C238.707 124.25 244.157 129.15 248.057 135.45C251.957 141.75 253.907 149 253.907 157.2C253.907 165.4 251.957 172.7 248.057 179.1C244.157 185.4 238.707 190.35 231.707 193.95C224.807 197.55 216.907 199.35 208.007 199.35ZM208.007 176.7C211.307 176.7 214.207 175.95 216.707 174.45C219.307 172.95 221.357 170.75 222.857 167.85C224.357 164.85 225.107 161.3 225.107 157.2C225.107 153.1 224.357 149.65 222.857 146.85C221.357 143.95 219.307 141.75 216.707 140.25C214.207 138.75 211.307 138 208.007 138C204.807 138 201.907 138.75 199.307 140.25C196.807 141.75 194.757 143.95 193.157 146.85C191.657 149.65 190.907 153.1 190.907 157.2C190.907 161.3 191.657 164.85 193.157 167.85C194.757 170.75 196.807 172.95 199.307 174.45C201.907 175.95 204.807 176.7 208.007 176.7ZM303.409 199.35C293.009 199.35 284.909 196.8 279.109 191.7C273.309 186.5 270.409 178.7 270.409 168.3V98.55H298.909V168C298.909 170.9 299.709 173.2 301.309 174.9C302.909 176.5 304.959 177.3 307.459 177.3C310.859 177.3 313.759 176.45 316.159 174.75L323.209 194.7C320.809 196.3 317.859 197.45 314.359 198.15C310.859 198.95 307.209 199.35 303.409 199.35ZM258.559 141V119.7H317.509V141H258.559ZM374.455 199.35C364.855 199.35 356.455 197.55 349.255 193.95C342.155 190.25 336.605 185.25 332.605 178.95C328.705 172.55 326.755 165.3 326.755 157.2C326.755 149.1 328.655 141.9 332.455 135.6C336.355 129.2 341.705 124.25 348.505 120.75C355.305 117.15 362.955 115.35 371.455 115.35C379.455 115.35 386.755 117 393.355 120.3C399.955 123.5 405.205 128.25 409.105 134.55C413.005 140.85 414.955 148.5 414.955 157.5C414.955 158.5 414.905 159.65 414.805 160.95C414.705 162.25 414.605 163.45 414.505 164.55H350.155V149.55H399.355L388.555 153.75C388.655 150.05 387.955 146.85 386.455 144.15C385.055 141.45 383.055 139.35 380.455 137.85C377.955 136.35 375.005 135.6 371.605 135.6C368.205 135.6 365.205 136.35 362.605 137.85C360.105 139.35 358.155 141.5 356.755 144.3C355.355 147 354.655 150.2 354.655 153.9V158.25C354.655 162.25 355.455 165.7 357.055 168.6C358.755 171.5 361.155 173.75 364.255 175.35C367.355 176.85 371.055 177.6 375.355 177.6C379.355 177.6 382.755 177.05 385.555 175.95C388.455 174.75 391.305 172.95 394.105 170.55L409.105 186.15C405.205 190.45 400.405 193.75 394.705 196.05C389.005 198.25 382.255 199.35 374.455 199.35Z"/>
</mask>
<path d="M47.707 198V93H72.157L130.057 162.9H118.507V93H147.607V198H123.157L65.257 128.1H76.807V198H47.707ZM208.007 199.35C199.107 199.35 191.207 197.55 184.307 193.95C177.407 190.35 171.957 185.4 167.957 179.1C164.057 172.7 162.107 165.4 162.107 157.2C162.107 149 164.057 141.75 167.957 135.45C171.957 129.15 177.407 124.25 184.307 120.75C191.207 117.15 199.107 115.35 208.007 115.35C216.907 115.35 224.807 117.15 231.707 120.75C238.707 124.25 244.157 129.15 248.057 135.45C251.957 141.75 253.907 149 253.907 157.2C253.907 165.4 251.957 172.7 248.057 179.1C244.157 185.4 238.707 190.35 231.707 193.95C224.807 197.55 216.907 199.35 208.007 199.35ZM208.007 176.7C211.307 176.7 214.207 175.95 216.707 174.45C219.307 172.95 221.357 170.75 222.857 167.85C224.357 164.85 225.107 161.3 225.107 157.2C225.107 153.1 224.357 149.65 222.857 146.85C221.357 143.95 219.307 141.75 216.707 140.25C214.207 138.75 211.307 138 208.007 138C204.807 138 201.907 138.75 199.307 140.25C196.807 141.75 194.757 143.95 193.157 146.85C191.657 149.65 190.907 153.1 190.907 157.2C190.907 161.3 191.657 164.85 193.157 167.85C194.757 170.75 196.807 172.95 199.307 174.45C201.907 175.95 204.807 176.7 208.007 176.7ZM303.409 199.35C293.009 199.35 284.909 196.8 279.109 191.7C273.309 186.5 270.409 178.7 270.409 168.3V98.55H298.909V168C298.909 170.9 299.709 173.2 301.309 174.9C302.909 176.5 304.959 177.3 307.459 177.3C310.859 177.3 313.759 176.45 316.159 174.75L323.209 194.7C320.809 196.3 317.859 197.45 314.359 198.15C310.859 198.95 307.209 199.35 303.409 199.35ZM258.559 141V119.7H317.509V141H258.559ZM374.455 199.35C364.855 199.35 356.455 197.55 349.255 193.95C342.155 190.25 336.605 185.25 332.605 178.95C328.705 172.55 326.755 165.3 326.755 157.2C326.755 149.1 328.655 141.9 332.455 135.6C336.355 129.2 341.705 124.25 348.505 120.75C355.305 117.15 362.955 115.35 371.455 115.35C379.455 115.35 386.755 117 393.355 120.3C399.955 123.5 405.205 128.25 409.105 134.55C413.005 140.85 414.955 148.5 414.955 157.5C414.955 158.5 414.905 159.65 414.805 160.95C414.705 162.25 414.605 163.45 414.505 164.55H350.155V149.55H399.355L388.555 153.75C388.655 150.05 387.955 146.85 386.455 144.15C385.055 141.45 383.055 139.35 380.455 137.85C377.955 136.35 375.005 135.6 371.605 135.6C368.205 135.6 365.205 136.35 362.605 137.85C360.105 139.35 358.155 141.5 356.755 144.3C355.355 147 354.655 150.2 354.655 153.9V158.25C354.655 162.25 355.455 165.7 357.055 168.6C358.755 171.5 361.155 173.75 364.255 175.35C367.355 176.85 371.055 177.6 375.355 177.6C379.355 177.6 382.755 177.05 385.555 175.95C388.455 174.75 391.305 172.95 394.105 170.55L409.105 186.15C405.205 190.45 400.405 193.75 394.705 196.05C389.005 198.25 382.255 199.35 374.455 199.35Z" fill="url(#paint0_linear_136_34)"/>
<path d="M47.707 198H42.707V203H47.707V198ZM47.707 93V88H42.707V93H47.707ZM72.157 93L76.0076 89.8105L74.5079 88H72.157V93ZM130.057 162.9V167.9H140.691L133.908 159.71L130.057 162.9ZM118.507 162.9H113.507V167.9H118.507V162.9ZM118.507 93V88H113.507V93H118.507ZM147.607 93H152.607V88H147.607V93ZM147.607 198V203H152.607V198H147.607ZM123.157 198L119.306 201.19L120.806 203H123.157V198ZM65.257 128.1V123.1H54.6228L61.4064 131.29L65.257 128.1ZM76.807 128.1H81.807V123.1H76.807V128.1ZM76.807 198V203H81.807V198H76.807ZM52.707 198V93H42.707V198H52.707ZM47.707 98H72.157V88H47.707V98ZM68.3064 96.1895L126.206 166.09L133.908 159.71L76.0076 89.8105L68.3064 96.1895ZM130.057 157.9H118.507V167.9H130.057V157.9ZM123.507 162.9V93H113.507V162.9H123.507ZM118.507 98H147.607V88H118.507V98ZM142.607 93V198H152.607V93H142.607ZM147.607 193H123.157V203H147.607V193ZM127.008 194.81L69.1076 124.91L61.4064 131.29L119.306 201.19L127.008 194.81ZM65.257 133.1H76.807V123.1H65.257V133.1ZM71.807 128.1V198H81.807V128.1H71.807ZM76.807 193H47.707V203H76.807V193ZM184.307 193.95L186.619 189.517L184.307 193.95ZM167.957 179.1L163.687 181.702L163.711 181.741L163.736 181.78L167.957 179.1ZM167.957 135.45L163.736 132.77L163.72 132.794L163.705 132.818L167.957 135.45ZM184.307 120.75L186.568 125.209L186.594 125.196L186.619 125.183L184.307 120.75ZM231.707 120.75L229.394 125.183L229.432 125.203L229.471 125.222L231.707 120.75ZM248.057 135.45L243.805 138.082L243.805 138.082L248.057 135.45ZM248.057 179.1L252.308 181.732L252.317 181.717L252.326 181.702L248.057 179.1ZM231.707 193.95L229.42 189.504L229.407 189.51L229.394 189.517L231.707 193.95ZM216.707 174.45L214.208 170.119L214.171 170.14L214.134 170.163L216.707 174.45ZM222.857 167.85L227.298 170.147L227.313 170.117L227.329 170.086L222.857 167.85ZM222.857 146.85L218.416 149.147L218.432 149.179L218.449 149.211L222.857 146.85ZM216.707 140.25L214.134 144.537L214.171 144.56L214.208 144.581L216.707 140.25ZM199.307 140.25L196.808 135.919L196.771 135.94L196.734 135.963L199.307 140.25ZM193.157 146.85L188.779 144.435L188.764 144.462L188.749 144.489L193.157 146.85ZM193.157 167.85L188.684 170.086L188.73 170.177L188.779 170.265L193.157 167.85ZM199.307 174.45L196.734 178.737L196.771 178.76L196.808 178.781L199.307 174.45ZM208.007 194.35C199.795 194.35 192.709 192.694 186.619 189.517L181.994 198.383C189.704 202.406 198.418 204.35 208.007 204.35V194.35ZM186.619 189.517C180.464 186.305 175.686 181.946 172.178 176.42L163.736 181.78C168.227 188.854 174.35 194.395 181.994 198.383L186.619 189.517ZM172.226 176.498C168.848 170.955 167.107 164.571 167.107 157.2H157.107C157.107 166.229 159.265 174.445 163.687 181.702L172.226 176.498ZM167.107 157.2C167.107 149.827 168.849 143.508 172.208 138.082L163.705 132.818C159.265 139.992 157.107 148.173 157.107 157.2H167.107ZM172.178 138.13C175.678 132.617 180.439 128.318 186.568 125.209L182.045 116.291C174.375 120.182 168.235 125.683 163.736 132.77L172.178 138.13ZM186.619 125.183C192.709 122.006 199.795 120.35 208.007 120.35V110.35C198.418 110.35 189.704 112.294 181.994 116.317L186.619 125.183ZM208.007 120.35C216.218 120.35 223.304 122.006 229.394 125.183L234.019 116.317C226.309 112.294 217.595 110.35 208.007 110.35V120.35ZM229.471 125.222C235.69 128.332 240.421 132.615 243.805 138.082L252.308 132.818C247.892 125.685 241.723 120.168 233.943 116.278L229.471 125.222ZM243.805 138.082C247.165 143.508 248.907 149.827 248.907 157.2H258.907C258.907 148.173 256.749 139.992 252.308 132.818L243.805 138.082ZM248.907 157.2C248.907 164.571 247.165 170.955 243.787 176.498L252.326 181.702C256.748 174.445 258.907 166.229 258.907 157.2H248.907ZM243.805 176.468C240.413 181.948 235.665 186.292 229.42 189.504L233.993 198.396C241.748 194.408 247.9 188.852 252.308 181.732L243.805 176.468ZM229.394 189.517C223.304 192.694 216.218 194.35 208.007 194.35V204.35C217.595 204.35 226.309 202.406 234.019 198.383L229.394 189.517ZM208.007 181.7C212.091 181.7 215.904 180.763 219.279 178.737L214.134 170.163C212.51 171.137 210.523 171.7 208.007 171.7V181.7ZM219.205 178.781C222.706 176.761 225.398 173.819 227.298 170.147L218.416 165.553C217.315 167.681 215.907 169.139 214.208 170.119L219.205 178.781ZM227.329 170.086C229.245 166.254 230.107 161.906 230.107 157.2H220.107C220.107 160.694 219.469 163.446 218.384 165.614L227.329 170.086ZM230.107 157.2C230.107 152.509 229.25 148.196 227.264 144.489L218.449 149.211C219.463 151.104 220.107 153.691 220.107 157.2H230.107ZM227.298 144.553C225.398 140.881 222.706 137.939 219.205 135.919L214.208 144.581C215.907 145.561 217.315 147.019 218.416 149.147L227.298 144.553ZM219.279 135.963C215.904 133.937 212.091 133 208.007 133V143C210.523 143 212.51 143.563 214.134 144.537L219.279 135.963ZM208.007 133C203.99 133 200.218 133.952 196.808 135.919L201.805 144.581C203.595 143.548 205.624 143 208.007 143V133ZM196.734 135.963C193.379 137.975 190.746 140.869 188.779 144.435L197.534 149.265C198.767 147.031 200.234 145.525 201.879 144.537L196.734 135.963ZM188.749 144.489C186.763 148.196 185.907 152.509 185.907 157.2H195.907C195.907 153.691 196.55 151.104 197.564 149.211L188.749 144.489ZM185.907 157.2C185.907 161.906 186.769 166.254 188.684 170.086L197.629 165.614C196.545 163.446 195.907 160.694 195.907 157.2H185.907ZM188.779 170.265C190.746 173.831 193.379 176.725 196.734 178.737L201.879 170.163C200.234 169.175 198.767 167.669 197.534 165.435L188.779 170.265ZM196.808 178.781C200.218 180.748 203.99 181.7 208.007 181.7V171.7C205.624 171.7 203.595 171.152 201.805 170.119L196.808 178.781ZM279.109 191.7L275.771 195.423L275.789 195.439L275.807 195.455L279.109 191.7ZM270.409 98.55V93.55H265.409V98.55H270.409ZM298.909 98.55H303.909V93.55H298.909V98.55ZM301.309 174.9L297.668 178.327L297.72 178.382L297.773 178.436L301.309 174.9ZM316.159 174.75L320.873 173.084L318.668 166.845L313.269 170.67L316.159 174.75ZM323.209 194.7L325.982 198.86L329.219 196.702L327.923 193.034L323.209 194.7ZM314.359 198.15L313.378 193.247L313.311 193.26L313.245 193.276L314.359 198.15ZM258.559 141H253.559V146H258.559V141ZM258.559 119.7V114.7H253.559V119.7H258.559ZM317.509 119.7H322.509V114.7H317.509V119.7ZM317.509 141V146H322.509V141H317.509ZM303.409 194.35C293.799 194.35 287.022 192 282.411 187.945L275.807 195.455C282.796 201.6 292.219 204.35 303.409 204.35V194.35ZM282.447 187.977C278.027 184.015 275.409 177.78 275.409 168.3H265.409C265.409 179.62 268.591 188.985 275.771 195.423L282.447 187.977ZM275.409 168.3V98.55H265.409V168.3H275.409ZM270.409 103.55H298.909V93.55H270.409V103.55ZM293.909 98.55V168H303.909V98.55H293.909ZM293.909 168C293.909 171.85 294.996 175.488 297.668 178.327L304.95 171.473C304.422 170.912 303.909 169.95 303.909 168H293.909ZM297.773 178.436C300.414 181.076 303.785 182.3 307.459 182.3V172.3C306.132 172.3 305.404 171.924 304.844 171.364L297.773 178.436ZM307.459 182.3C311.727 182.3 315.677 181.218 319.049 178.83L313.269 170.67C311.84 171.682 309.991 172.3 307.459 172.3V182.3ZM311.445 176.416L318.495 196.366L327.923 193.034L320.873 173.084L311.445 176.416ZM320.435 190.54C318.691 191.703 316.385 192.646 313.378 193.247L315.34 203.053C319.333 202.254 322.927 200.897 325.982 198.86L320.435 190.54ZM313.245 193.276C310.131 193.987 306.856 194.35 303.409 194.35V204.35C307.562 204.35 311.587 203.913 315.473 203.024L313.245 193.276ZM263.559 141V119.7H253.559V141H263.559ZM258.559 124.7H317.509V114.7H258.559V124.7ZM312.509 119.7V141H322.509V119.7H312.509ZM317.509 136H258.559V146H317.509V136ZM349.255 193.95L346.944 198.384L346.981 198.403L347.019 198.422L349.255 193.95ZM332.605 178.95L328.335 181.552L328.359 181.591L328.384 181.63L332.605 178.95ZM332.455 135.6L328.185 132.998L328.179 133.008L328.174 133.018L332.455 135.6ZM348.505 120.75L350.793 125.196L350.819 125.182L350.844 125.169L348.505 120.75ZM393.355 120.3L391.119 124.772L391.146 124.786L391.174 124.799L393.355 120.3ZM409.105 134.55L413.356 131.918L413.356 131.918L409.105 134.55ZM414.805 160.95L419.79 161.333L419.79 161.333L414.805 160.95ZM414.505 164.55V169.55H419.071L419.484 165.003L414.505 164.55ZM350.155 164.55H345.155V169.55H350.155V164.55ZM350.155 149.55V144.55H345.155V149.55H350.155ZM399.355 149.55L401.167 154.21L399.355 144.55V149.55ZM388.555 153.75L383.557 153.615L383.354 161.138L390.367 158.41L388.555 153.75ZM386.455 144.15L382.016 146.452L382.049 146.515L382.084 146.578L386.455 144.15ZM380.455 137.85L377.883 142.137L377.919 142.16L377.956 142.181L380.455 137.85ZM362.605 137.85L360.106 133.519L360.069 133.54L360.033 133.563L362.605 137.85ZM356.755 144.3L361.194 146.602L361.211 146.569L361.227 146.536L356.755 144.3ZM357.055 168.6L352.677 171.015L352.709 171.072L352.742 171.129L357.055 168.6ZM364.255 175.35L361.962 179.793L362.019 179.823L362.077 179.851L364.255 175.35ZM385.555 175.95L387.383 180.604L387.425 180.587L387.467 180.57L385.555 175.95ZM394.105 170.55L397.709 167.084L394.436 163.681L390.851 166.754L394.105 170.55ZM409.105 186.15L412.809 189.509L415.946 186.05L412.709 182.684L409.105 186.15ZM394.705 196.05L396.505 200.715L396.541 200.701L396.576 200.687L394.705 196.05ZM374.455 194.35C365.483 194.35 357.875 192.67 351.491 189.478L347.019 198.422C355.035 202.43 364.227 204.35 374.455 204.35V194.35ZM351.566 189.516C345.187 186.192 340.32 181.773 336.826 176.27L328.384 181.63C332.89 188.727 339.123 194.308 346.944 198.384L351.566 189.516ZM336.875 176.348C333.491 170.795 331.755 164.459 331.755 157.2H321.755C321.755 166.141 323.919 174.305 328.335 181.552L336.875 176.348ZM331.755 157.2C331.755 149.915 333.453 143.626 336.736 138.182L328.174 133.018C323.857 140.174 321.755 148.285 321.755 157.2H331.755ZM336.725 138.202C340.136 132.604 344.793 128.284 350.793 125.196L346.217 116.304C338.617 120.216 332.574 125.796 328.185 132.998L336.725 138.202ZM350.844 125.169C356.851 121.989 363.684 120.35 371.455 120.35V110.35C362.226 110.35 353.759 112.311 346.166 116.331L350.844 125.169ZM371.455 120.35C378.745 120.35 385.27 121.848 391.119 124.772L395.591 115.828C388.24 112.152 380.165 110.35 371.455 110.35V120.35ZM391.174 124.799C396.911 127.581 401.447 131.679 404.854 137.182L413.356 131.918C408.963 124.821 402.999 119.419 395.536 115.801L391.174 124.799ZM404.854 137.182C408.169 142.537 409.955 149.229 409.955 157.5H419.955C419.955 147.77 417.841 139.163 413.356 131.918L404.854 137.182ZM409.955 157.5C409.955 158.34 409.913 159.358 409.82 160.567L419.79 161.333C419.897 159.942 419.955 158.66 419.955 157.5H409.955ZM409.82 160.567C409.721 161.847 409.623 163.024 409.526 164.097L419.484 165.003C419.587 163.876 419.689 162.653 419.79 161.333L409.82 160.567ZM414.505 159.55H350.155V169.55H414.505V159.55ZM355.155 164.55V149.55H345.155V164.55H355.155ZM350.155 154.55H399.355V144.55H350.155V154.55ZM397.543 144.89L386.743 149.09L390.367 158.41L401.167 154.21L397.543 144.89ZM393.553 153.885C393.673 149.468 392.84 145.347 390.826 141.722L382.084 146.578C383.07 148.353 383.637 150.632 383.557 153.615L393.553 153.885ZM390.894 141.848C389.06 138.312 386.392 135.503 382.954 133.519L377.956 142.181C379.718 143.197 381.05 144.588 382.016 146.452L390.894 141.848ZM383.027 133.563C379.629 131.524 375.759 130.6 371.605 130.6V140.6C374.251 140.6 376.281 141.176 377.883 142.137L383.027 133.563ZM371.605 130.6C367.446 130.6 363.563 131.525 360.106 133.519L365.104 142.181C366.847 141.175 368.964 140.6 371.605 140.6V130.6ZM360.033 133.563C356.657 135.588 354.075 138.479 352.283 142.064L361.227 146.536C362.235 144.521 363.553 143.112 365.177 142.137L360.033 133.563ZM352.316 141.998C350.476 145.548 349.655 149.57 349.655 153.9H359.655C359.655 150.83 360.234 148.452 361.194 146.602L352.316 141.998ZM349.655 153.9V158.25H359.655V153.9H349.655ZM349.655 158.25C349.655 162.92 350.592 167.237 352.677 171.015L361.433 166.185C360.318 164.163 359.655 161.58 359.655 158.25H349.655ZM352.742 171.129C354.939 174.877 358.054 177.776 361.962 179.793L366.548 170.907C364.256 169.724 362.571 168.123 361.369 166.071L352.742 171.129ZM362.077 179.851C366.004 181.751 370.484 182.6 375.355 182.6V172.6C371.626 172.6 368.706 171.949 366.433 170.849L362.077 179.851ZM375.355 182.6C379.786 182.6 383.844 181.994 387.383 180.604L383.727 171.296C381.666 172.106 378.924 172.6 375.355 172.6V182.6ZM387.467 180.57C390.932 179.136 394.226 177.031 397.359 174.346L390.851 166.754C388.384 168.869 385.978 170.364 383.643 171.33L387.467 180.57ZM390.501 174.016L405.501 189.616L412.709 182.684L397.709 167.084L390.501 174.016ZM405.401 182.791C402.038 186.5 397.877 189.378 392.834 191.413L396.576 200.687C402.933 198.122 408.372 194.4 412.809 189.509L405.401 182.791ZM392.905 191.385C387.913 193.312 381.802 194.35 374.455 194.35V204.35C382.708 204.35 390.097 203.188 396.505 200.715L392.905 191.385Z" fill="white" mask="url(#path-1-outside-1_136_34)"/>
<mask id="path-3-outside-2_136_34" maskUnits="userSpaceOnUse" x="448" y="67" width="112" height="131" fill="black">
<rect fill="white" x="448" y="67" width="112" height="131"/>
<path d="M484.922 169.4C484.922 173.4 485.072 176.6 485.372 179C485.672 181.4 486.272 183.25 487.172 184.55C488.072 185.85 489.372 186.75 491.072 187.25C492.772 187.65 495.072 187.9 497.972 188V194H450.722V188C453.522 187.9 455.772 187.6 457.472 187.1C459.272 186.5 460.622 185.6 461.522 184.4C462.522 183.1 463.172 181.35 463.472 179.15C463.872 176.85 464.072 173.95 464.072 170.45V152C464.072 146.2 463.972 141.45 463.772 137.75C463.572 133.95 463.322 131.35 463.022 129.95C462.522 127.45 461.372 125.8 459.572 125C457.872 124.2 454.722 123.8 450.122 123.8V118.7L484.922 113V169.4ZM462.872 81.2C462.872 77.9 463.972 75.15 466.172 72.95C468.472 70.65 471.222 69.5 474.422 69.5C477.722 69.5 480.472 70.65 482.672 72.95C484.972 75.15 486.122 77.9 486.122 81.2C486.122 84.4 484.972 87.15 482.672 89.45C480.472 91.65 477.722 92.75 474.422 92.75C471.222 92.75 468.472 91.65 466.172 89.45C463.972 87.15 462.872 84.4 462.872 81.2ZM504.322 122.75V116C510.322 114.3 515.322 111.75 519.322 108.35C523.422 104.85 526.472 100.85 528.472 96.35H536.122V114.5H553.372V122.75H536.122V168.8C536.122 175 536.772 179.4 538.072 182C539.472 184.6 541.772 185.9 544.972 185.9C548.872 185.9 551.822 184.1 553.822 180.5L556.972 184.85C554.172 191.95 547.572 195.5 537.172 195.5C530.272 195.5 524.872 193.9 520.972 190.7C517.172 187.5 515.272 183 515.272 177.2V122.75H504.322Z"/>
</mask>
<path d="M484.922 169.4C484.922 173.4 485.072 176.6 485.372 179C485.672 181.4 486.272 183.25 487.172 184.55C488.072 185.85 489.372 186.75 491.072 187.25C492.772 187.65 495.072 187.9 497.972 188V194H450.722V188C453.522 187.9 455.772 187.6 457.472 187.1C459.272 186.5 460.622 185.6 461.522 184.4C462.522 183.1 463.172 181.35 463.472 179.15C463.872 176.85 464.072 173.95 464.072 170.45V152C464.072 146.2 463.972 141.45 463.772 137.75C463.572 133.95 463.322 131.35 463.022 129.95C462.522 127.45 461.372 125.8 459.572 125C457.872 124.2 454.722 123.8 450.122 123.8V118.7L484.922 113V169.4ZM462.872 81.2C462.872 77.9 463.972 75.15 466.172 72.95C468.472 70.65 471.222 69.5 474.422 69.5C477.722 69.5 480.472 70.65 482.672 72.95C484.972 75.15 486.122 77.9 486.122 81.2C486.122 84.4 484.972 87.15 482.672 89.45C480.472 91.65 477.722 92.75 474.422 92.75C471.222 92.75 468.472 91.65 466.172 89.45C463.972 87.15 462.872 84.4 462.872 81.2ZM504.322 122.75V116C510.322 114.3 515.322 111.75 519.322 108.35C523.422 104.85 526.472 100.85 528.472 96.35H536.122V114.5H553.372V122.75H536.122V168.8C536.122 175 536.772 179.4 538.072 182C539.472 184.6 541.772 185.9 544.972 185.9C548.872 185.9 551.822 184.1 553.822 180.5L556.972 184.85C554.172 191.95 547.572 195.5 537.172 195.5C530.272 195.5 524.872 193.9 520.972 190.7C517.172 187.5 515.272 183 515.272 177.2V122.75H504.322Z" fill="white"/>
<path d="M485.372 179L487.357 178.752L487.357 178.752L485.372 179ZM487.172 184.55L485.528 185.688L485.528 185.688L487.172 184.55ZM491.072 187.25L490.508 189.169L490.561 189.184L490.614 189.197L491.072 187.25ZM497.972 188H499.972V186.068L498.041 186.001L497.972 188ZM497.972 194V196H499.972V194H497.972ZM450.722 194H448.722V196H450.722V194ZM450.722 188L450.651 186.001L448.722 186.07V188H450.722ZM457.472 187.1L458.037 189.019L458.071 189.009L458.105 188.997L457.472 187.1ZM461.522 184.4L459.937 183.181L459.93 183.19L459.922 183.2L461.522 184.4ZM463.472 179.15L461.502 178.807L461.496 178.843L461.491 178.88L463.472 179.15ZM463.772 137.75L461.775 137.855L461.775 137.858L463.772 137.75ZM463.022 129.95L461.061 130.342L461.064 130.356L461.067 130.369L463.022 129.95ZM459.572 125L458.721 126.81L458.74 126.819L458.76 126.828L459.572 125ZM450.122 123.8H448.122V125.8H450.122V123.8ZM450.122 118.7L449.799 116.726L448.122 117.001V118.7H450.122ZM484.922 113H486.922V110.646L484.599 111.026L484.922 113ZM466.172 72.95L464.758 71.5358L464.758 71.5358L466.172 72.95ZM482.672 72.95L481.227 74.3324L481.258 74.3646L481.29 74.3953L482.672 72.95ZM482.672 89.45L481.258 88.0358L481.258 88.0358L482.672 89.45ZM466.172 89.45L464.727 90.8324L464.758 90.8646L464.79 90.8953L466.172 89.45ZM482.922 169.4C482.922 173.437 483.073 176.73 483.388 179.248L487.357 178.752C487.072 176.47 486.922 173.363 486.922 169.4H482.922ZM483.388 179.248C483.708 181.814 484.373 184.02 485.528 185.688L488.817 183.412C488.172 182.48 487.636 180.986 487.357 178.752L483.388 179.248ZM485.528 185.688C486.72 187.41 488.425 188.556 490.508 189.169L491.637 185.331C490.319 184.944 489.425 184.29 488.817 183.412L485.528 185.688ZM490.614 189.197C492.498 189.64 494.946 189.897 497.903 189.999L498.041 186.001C495.199 185.903 493.047 185.66 491.53 185.303L490.614 189.197ZM495.972 188V194H499.972V188H495.972ZM497.972 192H450.722V196H497.972V192ZM452.722 194V188H448.722V194H452.722ZM450.794 189.999C453.676 189.896 456.112 189.585 458.037 189.019L456.908 185.181C455.433 185.615 453.369 185.904 450.651 186.001L450.794 189.999ZM458.105 188.997C460.188 188.303 461.921 187.202 463.122 185.6L459.922 183.2C459.324 183.998 458.356 184.697 456.84 185.203L458.105 188.997ZM463.108 185.619C464.382 183.962 465.123 181.848 465.454 179.42L461.491 178.88C461.222 180.852 460.662 182.238 459.937 183.181L463.108 185.619ZM465.443 179.493C465.87 177.039 466.072 174.014 466.072 170.45H462.072C462.072 173.886 461.875 176.661 461.502 178.807L465.443 179.493ZM466.072 170.45V152H462.072V170.45H466.072ZM466.072 152C466.072 146.182 465.972 141.392 465.769 137.642L461.775 137.858C461.973 141.508 462.072 146.218 462.072 152H466.072ZM465.77 137.645C465.57 133.857 465.316 131.107 464.978 129.531L461.067 130.369C461.329 131.593 461.574 134.043 461.775 137.855L465.77 137.645ZM464.983 129.558C464.398 126.629 462.948 124.312 460.385 123.172L458.76 126.828C459.797 127.288 460.647 128.271 461.061 130.342L464.983 129.558ZM460.424 123.19C458.275 122.179 454.708 121.8 450.122 121.8V125.8C454.737 125.8 457.47 126.221 458.721 126.81L460.424 123.19ZM452.122 123.8V118.7H448.122V123.8H452.122ZM450.446 120.674L485.246 114.974L484.599 111.026L449.799 116.726L450.446 120.674ZM482.922 113V169.4H486.922V113H482.922ZM464.872 81.2C464.872 78.3947 465.786 76.1646 467.587 74.3642L464.758 71.5358C462.159 74.1354 460.872 77.4053 460.872 81.2H464.872ZM467.587 74.3642C469.518 72.4323 471.762 71.5 474.422 71.5V67.5C470.682 67.5 467.426 68.8676 464.758 71.5358L467.587 74.3642ZM474.422 71.5C477.199 71.5 479.42 72.4429 481.227 74.3324L484.118 71.5675C481.525 68.857 478.246 67.5 474.422 67.5V71.5ZM481.29 74.3953C483.179 76.2026 484.122 78.4232 484.122 81.2H488.122C488.122 77.3768 486.765 74.0974 484.055 71.5047L481.29 74.3953ZM484.122 81.2C484.122 83.8598 483.19 86.1039 481.258 88.0358L484.087 90.8642C486.755 88.1961 488.122 84.9402 488.122 81.2H484.122ZM481.258 88.0358C479.458 89.8362 477.228 90.75 474.422 90.75V94.75C478.217 94.75 481.487 93.4638 484.087 90.8642L481.258 88.0358ZM474.422 90.75C471.734 90.75 469.48 89.8465 467.555 88.0047L464.79 90.8953C467.464 93.4534 470.71 94.75 474.422 94.75V90.75ZM467.618 88.0676C465.776 86.142 464.872 83.8881 464.872 81.2H460.872C460.872 84.9119 462.169 88.158 464.727 90.8324L467.618 88.0676ZM504.322 122.75H502.322V124.75H504.322V122.75ZM504.322 116L503.776 114.076L502.322 114.488V116H504.322ZM519.322 108.35L520.617 109.874L520.62 109.871L519.322 108.35ZM528.472 96.35V94.35H527.172L526.644 95.5377L528.472 96.35ZM536.122 96.35H538.122V94.35H536.122V96.35ZM536.122 114.5H534.122V116.5H536.122V114.5ZM553.372 114.5H555.372V112.5H553.372V114.5ZM553.372 122.75V124.75H555.372V122.75H553.372ZM536.122 122.75V120.75H534.122V122.75H536.122ZM538.072 182L536.283 182.894L536.296 182.922L536.311 182.948L538.072 182ZM553.822 180.5L555.441 179.327L553.599 176.783L552.073 179.529L553.822 180.5ZM556.972 184.85L558.832 185.584L559.234 184.564L558.591 183.677L556.972 184.85ZM520.972 190.7L519.683 192.23L519.693 192.238L519.703 192.246L520.972 190.7ZM515.272 122.75H517.272V120.75H515.272V122.75ZM506.322 122.75V116H502.322V122.75H506.322ZM504.867 117.924C511.091 116.161 516.361 113.491 520.617 109.874L518.026 106.826C514.282 110.009 509.552 112.439 503.776 114.076L504.867 117.924ZM520.62 109.871C524.925 106.196 528.167 101.96 530.299 97.1623L526.644 95.5377C524.776 99.7399 521.918 103.504 518.023 106.829L520.62 109.871ZM528.472 98.35H536.122V94.35H528.472V98.35ZM534.122 96.35V114.5H538.122V96.35H534.122ZM536.122 116.5H553.372V112.5H536.122V116.5ZM551.372 114.5V122.75H555.372V114.5H551.372ZM553.372 120.75H536.122V124.75H553.372V120.75ZM534.122 122.75V168.8H538.122V122.75H534.122ZM534.122 168.8C534.122 175.035 534.758 179.846 536.283 182.894L539.86 181.106C538.785 178.954 538.122 174.965 538.122 168.8H534.122ZM536.311 182.948C537.168 184.54 538.346 185.809 539.862 186.666C541.37 187.518 543.099 187.9 544.972 187.9V183.9C543.644 183.9 542.623 183.632 541.831 183.184C541.047 182.741 540.375 182.06 539.832 181.052L536.311 182.948ZM544.972 187.9C547.241 187.9 549.323 187.372 551.151 186.257C552.973 185.145 554.434 183.516 555.57 181.471L552.073 179.529C551.209 181.084 550.195 182.155 549.067 182.843C547.945 183.528 546.602 183.9 544.972 183.9V187.9ZM552.202 181.673L555.352 186.023L558.591 183.677L555.441 179.327L552.202 181.673ZM555.111 184.116C553.881 187.235 551.85 189.529 548.974 191.076C546.056 192.646 542.162 193.5 537.172 193.5V197.5C542.581 197.5 547.187 196.579 550.869 194.599C554.594 192.596 557.262 189.565 558.832 185.584L555.111 184.116ZM537.172 193.5C530.565 193.5 525.67 191.968 522.24 189.154L519.703 192.246C524.073 195.832 529.978 197.5 537.172 197.5V193.5ZM522.26 189.17C518.989 186.416 517.272 182.52 517.272 177.2H513.272C513.272 183.48 515.354 188.584 519.683 192.23L522.26 189.17ZM517.272 177.2V122.75H513.272V177.2H517.272ZM515.272 120.75H504.322V124.75H515.272V120.75Z" fill="black" mask="url(#path-3-outside-2_136_34)"/>
<g filter="url(#filter0_d_136_34)">
<path d="M497 82.7156C497 88.8476 493.573 99.046 477.494 99.046C461.414 99.046 451 95.2791 451 89.1471C451 83.0151 471.347 16.655 484.739 50.6301C488.815 62.822 497 76.5835 497 82.7156Z" fill="#FF0909"/>
</g>
<g filter="url(#filter1_d_136_34)">
<path d="M491.522 87.2954C491.522 91.9358 486.42 97.2564 475.164 97.2564C463.909 97.2564 456.531 94.1231 456.531 89.4826C456.531 84.8422 472.151 35.6051 481.525 61.316C485.601 70.359 491.522 82.655 491.522 87.2954Z" fill="#FFAC2F"/>
</g>
<g filter="url(#filter2_d_136_34)">
<path d="M484.626 89.9204C484.626 92.6908 478.899 94.9367 473.271 94.9367C467.644 94.9367 463.082 92.6908 463.082 89.9204C463.082 87.15 472.464 53.237 477.241 70.9235C478.515 76.921 484.626 87.15 484.626 89.9204Z" fill="white"/>
</g>
<defs>
<filter id="filter0_d_136_34" x="410" y="0" width="128" height="140.046" filterUnits="userSpaceOnUse" color-interpolation-filters="sRGB">
<feFlood flood-opacity="0" result="BackgroundImageFix"/>
<feColorMatrix in="SourceAlpha" type="matrix" values="0 0 0 0 0 0 0 0 0 0 0 0 0 0 0 0 0 0 127 0" result="hardAlpha"/>
<feOffset/>
<feGaussianBlur stdDeviation="20.5"/>
<feComposite in2="hardAlpha" operator="out"/>
<feColorMatrix type="matrix" values="0 0 0 0 1 0 0 0 0 0 0 0 0 0 0 0 0 0 1 0"/>
<feBlend mode="normal" in2="BackgroundImageFix" result="effect1_dropShadow_136_34"/>
<feBlend mode="normal" in="SourceGraphic" in2="effect1_dropShadow_136_34" result="shape"/>
</filter>
<filter id="filter1_d_136_34" x="446.531" y="43.923" width="54.9907" height="63.3334" filterUnits="userSpaceOnUse" color-interpolation-filters="sRGB">
<feFlood flood-opacity="0" result="BackgroundImageFix"/>
<feColorMatrix in="SourceAlpha" type="matrix" values="0 0 0 0 0 0 0 0 0 0 0 0 0 0 0 0 0 0 127 0" result="hardAlpha"/>
<feOffset/>
<feGaussianBlur stdDeviation="5"/>
<feComposite in2="hardAlpha" operator="out"/>
<feColorMatrix type="matrix" values="0 0 0 0 1 0 0 0 0 0.9 0 0 0 0 0 0 0 0 1 0"/>
<feBlend mode="normal" in2="BackgroundImageFix" result="effect1_dropShadow_136_34"/>
<feBlend mode="normal" in="SourceGraphic" in2="effect1_dropShadow_136_34" result="shape"/>
</filter>
<filter id="filter2_d_136_34" x="453.082" y="55.8389" width="41.5444" height="49.0978" filterUnits="userSpaceOnUse" color-interpolation-filters="sRGB">
<feFlood flood-opacity="0" result="BackgroundImageFix"/>
<feColorMatrix in="SourceAlpha" type="matrix" values="0 0 0 0 0 0 0 0 0 0 0 0 0 0 0 0 0 0 127 0" result="hardAlpha"/>
<feOffset/>
<feGaussianBlur stdDeviation="5"/>
<feComposite in2="hardAlpha" operator="out"/>
<feColorMatrix type="matrix" values="0 0 0 0 1 0 0 0 0 1 0 0 0 0 1 0 0 0 0.91 0"/>
<feBlend mode="normal" in2="BackgroundImageFix" result="effect1_dropShadow_136_34"/>
<feBlend mode="normal" in="SourceGraphic" in2="effect1_dropShadow_136_34" result="shape"/>
</filter>
<linearGradient id="paint0_linear_136_34" x1="269.23" y1="276.183" x2="267.237" y2="52.9903" gradientUnits="userSpaceOnUse">
<stop stop-color="#BCBCBC"/>
<stop offset="0.996666"/>
</linearGradient>
</defs>
</svg>
