<svg width="207" height="164" viewBox="0 0 207 164" fill="none" xmlns="http://www.w3.org/2000/svg">
<g filter="url(#filter0_i_55_11)">
<mask id="path-1-outside-1_55_11" maskUnits="userSpaceOnUse" x="80" y="35" width="111" height="115" fill="black">
<rect fill="white" x="80" y="35" width="111" height="115"/>
<path d="M85.5752 145V40H110.025L167.925 109.9H156.375V40H185.475V145H161.025L103.125 75.1H114.675V145H85.5752Z"/>
</mask>
<path d="M85.5752 145V40H110.025L167.925 109.9H156.375V40H185.475V145H161.025L103.125 75.1H114.675V145H85.5752Z" fill="url(#paint0_linear_55_11)"/>
<path d="M85.5752 145H80.5752V150H85.5752V145ZM85.5752 40V35H80.5752V40H85.5752ZM110.025 40L113.876 36.8105L112.376 35H110.025V40ZM167.925 109.9V114.9H178.559L171.776 106.71L167.925 109.9ZM156.375 109.9H151.375V114.9H156.375V109.9ZM156.375 40V35H151.375V40H156.375ZM185.475 40H190.475V35H185.475V40ZM185.475 145V150H190.475V145H185.475ZM161.025 145L157.175 148.19L158.674 150H161.025V145ZM103.125 75.1V70.1H92.491L99.2746 78.2895L103.125 75.1ZM114.675 75.1H119.675V70.1H114.675V75.1ZM114.675 145V150H119.675V145H114.675ZM90.5752 145V40H80.5752V145H90.5752ZM85.5752 45H110.025V35H85.5752V45ZM106.175 43.1895L164.075 113.09L171.776 106.71L113.876 36.8105L106.175 43.1895ZM167.925 104.9H156.375V114.9H167.925V104.9ZM161.375 109.9V40H151.375V109.9H161.375ZM156.375 45H185.475V35H156.375V45ZM180.475 40V145H190.475V40H180.475ZM185.475 140H161.025V150H185.475V140ZM164.876 141.81L106.976 71.9105L99.2746 78.2895L157.175 148.19L164.876 141.81ZM103.125 80.1H114.675V70.1H103.125V80.1ZM109.675 75.1V145H119.675V75.1H109.675ZM114.675 140H85.5752V150H114.675V140Z" fill="url(#paint1_linear_55_11)" mask="url(#path-1-outside-1_55_11)"/>
<g filter="url(#filter1_d_55_11)">
<mask id="path-3-outside-2_55_11" maskUnits="userSpaceOnUse" x="23" y="26" width="49" height="121" fill="black">
<rect fill="white" x="23" y="26" width="49" height="121"/>
<path d="M57.687 122.04C57.687 125.773 57.827 128.76 58.107 131C58.387 133.24 58.947 134.967 59.787 136.18C60.627 137.393 61.8404 138.233 63.427 138.7C65.0137 139.073 67.1604 139.307 69.867 139.4V145H25.767V139.4C28.3804 139.307 30.4804 139.027 32.067 138.56C33.747 138 35.007 137.16 35.847 136.04C36.7804 134.827 37.387 133.193 37.667 131.14C38.0404 128.993 38.227 126.287 38.227 123.02V105.8C38.227 100.387 38.1337 95.9533 37.947 92.5C37.7604 88.9533 37.527 86.5267 37.247 85.22C36.7804 82.8867 35.707 81.3467 34.027 80.6C32.4404 79.8533 29.5004 79.48 25.207 79.48V74.72L57.687 69.4V122.04ZM37.107 39.72C37.107 36.64 38.1337 34.0733 40.187 32.02C42.3337 29.8733 44.9004 28.8 47.887 28.8C50.967 28.8 53.5337 29.8733 55.587 32.02C57.7337 34.0733 58.807 36.64 58.807 39.72C58.807 42.7067 57.7337 45.2733 55.587 47.42C53.5337 49.4733 50.967 50.5 47.887 50.5C44.9004 50.5 42.3337 49.4733 40.187 47.42C38.1337 45.2733 37.107 42.7067 37.107 39.72Z"/>
</mask>
<path d="M57.687 122.04C57.687 125.773 57.827 128.76 58.107 131C58.387 133.24 58.947 134.967 59.787 136.18C60.627 137.393 61.8404 138.233 63.427 138.7C65.0137 139.073 67.1604 139.307 69.867 139.4V145H25.767V139.4C28.3804 139.307 30.4804 139.027 32.067 138.56C33.747 138 35.007 137.16 35.847 136.04C36.7804 134.827 37.387 133.193 37.667 131.14C38.0404 128.993 38.227 126.287 38.227 123.02V105.8C38.227 100.387 38.1337 95.9533 37.947 92.5C37.7604 88.9533 37.527 86.5267 37.247 85.22C36.7804 82.8867 35.707 81.3467 34.027 80.6C32.4404 79.8533 29.5004 79.48 25.207 79.48V74.72L57.687 69.4V122.04ZM37.107 39.72C37.107 36.64 38.1337 34.0733 40.187 32.02C42.3337 29.8733 44.9004 28.8 47.887 28.8C50.967 28.8 53.5337 29.8733 55.587 32.02C57.7337 34.0733 58.807 36.64 58.807 39.72C58.807 42.7067 57.7337 45.2733 55.587 47.42C53.5337 49.4733 50.967 50.5 47.887 50.5C44.9004 50.5 42.3337 49.4733 40.187 47.42C38.1337 45.2733 37.107 42.7067 37.107 39.72Z" fill="white"/>
<path d="M58.107 131L60.0916 130.752L60.0916 130.752L58.107 131ZM59.787 136.18L58.1426 137.318L58.1426 137.318L59.787 136.18ZM63.427 138.7L62.8627 140.619L62.9154 140.634L62.969 140.647L63.427 138.7ZM69.867 139.4H71.867V137.468L69.936 137.401L69.867 139.4ZM69.867 145V147H71.867V145H69.867ZM25.767 145H23.767V147H25.767V145ZM25.767 139.4L25.6956 137.401L23.767 137.47V139.4H25.767ZM32.067 138.56L32.6314 140.479L32.6656 140.469L32.6995 140.457L32.067 138.56ZM35.847 136.04L34.2618 134.821L34.2543 134.83L34.247 134.84L35.847 136.04ZM37.667 131.14L35.6966 130.797L35.6903 130.833L35.6854 130.87L37.667 131.14ZM37.947 92.5L35.9498 92.6051L35.9499 92.6079L37.947 92.5ZM37.247 85.22L35.2859 85.6122L35.2886 85.6257L35.2914 85.6391L37.247 85.22ZM34.027 80.6L33.1754 82.4096L33.195 82.4188L33.2148 82.4276L34.027 80.6ZM25.207 79.48H23.207V81.48H25.207V79.48ZM25.207 74.72L24.8838 72.7463L23.207 73.0209V74.72H25.207ZM57.687 69.4H59.687V67.0458L57.3638 67.4263L57.687 69.4ZM40.187 32.02L38.7728 30.6058L38.7728 30.6058L40.187 32.02ZM55.587 32.02L54.1417 33.4024L54.1725 33.4346L54.2046 33.4653L55.587 32.02ZM55.587 47.42L54.1728 46.0058L54.1728 46.0058L55.587 47.42ZM40.187 47.42L38.7417 48.8024L38.7725 48.8346L38.8046 48.8653L40.187 47.42ZM55.687 122.04C55.687 125.81 55.8277 128.89 56.1225 131.248L60.0916 130.752C59.8263 128.63 59.687 125.736 59.687 122.04H55.687ZM56.1225 131.248C56.4232 133.654 57.0474 135.736 58.1426 137.318L61.4314 135.042C60.8467 134.197 60.3509 132.826 60.0916 130.752L56.1225 131.248ZM58.1426 137.318C59.2743 138.953 60.8935 140.04 62.8627 140.619L63.9914 136.781C62.7872 136.427 61.9797 135.834 61.4314 135.042L58.1426 137.318ZM62.969 140.647C64.7393 141.063 67.0341 141.304 69.7981 141.399L69.936 137.401C67.2866 137.31 65.2881 137.083 63.8851 136.753L62.969 140.647ZM67.867 139.4V145H71.867V139.4H67.867ZM69.867 143H25.767V147H69.867V143ZM27.767 145V139.4H23.767V145H27.767ZM25.8384 141.399C28.5341 141.302 30.8196 141.012 32.6314 140.479L31.5027 136.641C30.1412 137.042 28.2266 137.311 25.6956 137.401L25.8384 141.399ZM32.6995 140.457C34.663 139.803 36.3053 138.762 37.447 137.24L34.247 134.84C33.7087 135.558 32.8311 136.197 31.4346 136.663L32.6995 140.457ZM37.4323 137.259C38.6404 135.689 39.3376 133.692 39.6487 131.41L35.6854 130.87C35.4365 132.695 34.9203 133.965 34.2618 134.821L37.4323 137.259ZM39.6375 131.483C40.0376 129.182 40.227 126.351 40.227 123.02H36.227C36.227 126.223 36.0431 128.805 35.6966 130.797L39.6375 131.483ZM40.227 123.02V105.8H36.227V123.02H40.227ZM40.227 105.8C40.227 100.368 40.1335 95.8954 39.9441 92.392L35.9499 92.6079C36.1339 96.0112 36.227 100.405 36.227 105.8H40.227ZM39.9443 92.3949C39.7582 88.8605 39.5204 86.2838 39.2026 84.8009L35.2914 85.6391C35.5337 86.7696 35.7625 89.0462 35.9498 92.6051L39.9443 92.3949ZM39.2082 84.8278C38.6557 82.0654 37.2827 79.8583 34.8393 78.7724L33.2148 82.4276C34.1314 82.835 34.905 83.7079 35.2859 85.6122L39.2082 84.8278ZM34.8786 78.7904C32.8429 77.8324 29.4858 77.48 25.207 77.48V81.48C29.5149 81.48 32.0378 81.8743 33.1754 82.4096L34.8786 78.7904ZM27.207 79.48V74.72H23.207V79.48H27.207ZM25.5303 76.6937L58.0103 71.3737L57.3638 67.4263L24.8838 72.7463L25.5303 76.6937ZM55.687 69.4V122.04H59.687V69.4H55.687ZM39.107 39.72C39.107 37.1347 39.9475 35.088 41.6012 33.4342L38.7728 30.6058C36.3199 33.0587 35.107 36.1453 35.107 39.72H39.107ZM41.6012 33.4342C43.3798 31.6557 45.4405 30.8 47.887 30.8V26.8C44.3602 26.8 41.2876 28.091 38.7728 30.6058L41.6012 33.4342ZM47.887 30.8C50.4438 30.8 52.4811 31.6663 54.1417 33.4024L57.0323 30.6375C54.5863 28.0804 51.4903 26.8 47.887 26.8V30.8ZM54.2046 33.4653C55.9408 35.126 56.807 37.1632 56.807 39.72H60.807C60.807 36.1168 59.5266 33.0207 56.9695 30.5747L54.2046 33.4653ZM56.807 39.72C56.807 42.1665 55.9513 44.2273 54.1728 46.0058L57.0012 48.8342C59.5161 46.3194 60.807 43.2468 60.807 39.72H56.807ZM54.1728 46.0058C52.5191 47.6595 50.4723 48.5 47.887 48.5V52.5C51.4618 52.5 54.5483 51.2871 57.0012 48.8342L54.1728 46.0058ZM47.887 48.5C45.4123 48.5 43.3417 47.6699 41.5695 45.9747L38.8046 48.8653C41.3257 51.2768 44.3884 52.5 47.887 52.5V48.5ZM41.6323 46.0376C39.9371 44.2653 39.107 42.1947 39.107 39.72H35.107C35.107 43.2186 36.3303 46.2813 38.7417 48.8024L41.6323 46.0376Z" fill="black" mask="url(#path-3-outside-2_55_11)"/>
</g>
</g>
<defs>
<filter id="filter0_i_55_11" x="25.207" y="28.8" width="163.269" height="119.2" filterUnits="userSpaceOnUse" color-interpolation-filters="sRGB">
<feFlood flood-opacity="0" result="BackgroundImageFix"/>
<feBlend mode="normal" in="SourceGraphic" in2="BackgroundImageFix" result="shape"/>
<feColorMatrix in="SourceAlpha" type="matrix" values="0 0 0 0 0 0 0 0 0 0 0 0 0 0 0 0 0 0 127 0" result="hardAlpha"/>
<feOffset dx="3" dy="3"/>
<feGaussianBlur stdDeviation="5"/>
<feComposite in2="hardAlpha" operator="arithmetic" k2="-1" k3="1"/>
<feColorMatrix type="matrix" values="0 0 0 0 1 0 0 0 0 1 0 0 0 0 1 0 0 0 1 0"/>
<feBlend mode="normal" in2="shape" result="effect1_innerShadow_55_11"/>
</filter>
<filter id="filter1_d_55_11" x="25.207" y="28.8" width="52.6602" height="124.2" filterUnits="userSpaceOnUse" color-interpolation-filters="sRGB">
<feFlood flood-opacity="0" result="BackgroundImageFix"/>
<feColorMatrix in="SourceAlpha" type="matrix" values="0 0 0 0 0 0 0 0 0 0 0 0 0 0 0 0 0 0 127 0" result="hardAlpha"/>
<feOffset dx="4" dy="4"/>
<feGaussianBlur stdDeviation="2"/>
<feComposite in2="hardAlpha" operator="out"/>
<feColorMatrix type="matrix" values="0 0 0 0 0 0 0 0 0 0.820833 0 0 0 0 0.771583 0 0 0 1 0"/>
<feBlend mode="normal" in2="BackgroundImageFix" result="effect1_dropShadow_55_11"/>
<feBlend mode="normal" in="SourceGraphic" in2="effect1_dropShadow_55_11" result="shape"/>
</filter>
<linearGradient id="paint0_linear_55_11" x1="148.401" y1="239.751" x2="141.07" y2="0.194806" gradientUnits="userSpaceOnUse">
<stop stop-color="#3DDCF2"/>
<stop offset="0.996666"/>
</linearGradient>
<linearGradient id="paint1_linear_55_11" x1="136.73" y1="164.896" x2="122.171" y2="34.247" gradientUnits="userSpaceOnUse">
<stop stop-color="white"/>
<stop offset="1" stop-color="white"/>
</linearGradient>
</defs>
</svg>
